<svg xmlns="http://www.w3.org/2000/svg" width="377.77" height="341.28" viewBox="0 0 377.77 341.28">
  <defs>
    <style>
      .cls-1 {
        fill: #dd1717;
      }
    </style>
  </defs>
  <title>cuore</title>
  <g id="Graphic_Elements" data-name="Graphic Elements">
    <path class="cls-1" d="M377.66,101.92h0c.05-1.3.1-2.59.1-3.9,0-52.51-44.28-98-98.91-98-39.94,0-74.33,25.71-89.95,58.47h0C173.26,25.71,138.87,0,98.93,0,44.3,0,0,45.51,0,98c0,1.31.05,2.6.1,3.9h0s-5.59,62.37,63.83,130.47C95.5,264,130.79,294.07,188.88,341.28c58.1-47.21,93.39-77.27,125-108.89C383.24,164.29,377.66,101.92,377.66,101.92Z"/>
  </g>
</svg>
