<svg id="Layer_1" data-name="Layer 1" xmlns="http://www.w3.org/2000/svg" width="890.69mm" height="170.22mm" viewBox="0 0 2524.8 482.52">
  <defs>
    <style>
      .cls-1, .cls-3 {
        opacity: 0.3;
      }

      .cls-2, .cls-3 {
        fill: #162860;
      }
    </style>
  </defs>
  <title>libri</title>
  <g class="cls-1">
    <g>
      <g>
        <path class="cls-2" d="M1736.71,336.6c-47-5-93.77-11.24-140.53-17.89q-17.67-2.5-35.33-5.07c-8.22-1.19-16.66-2.9-25-1.72-18.17,2.57-23.66,21.76-24.27,37.65-.53,13.57,1.54,30.95,14.67,38.27,5.54,3.09,12,4.21,18.15,5.17,10.61,1.64,21.24,3.13,31.85,4.71L1720.05,419c8.72,1.29,17.69,2.07,26.26,4.19,6.28,1.56,12.55,3.32,19,4.33,5,.78,10,1.36,12.16-4.18,2-5.12,1.9-14.72-4.87-15.93-38.92-6.91-78.41-10-117.45-16.12-9.45-1.49-18.83-3.25-28.35-4.27-10-1.07-20-2.3-29.89-4.08-16.4-2.93-33.42-3.66-49.35-8.86-7.33-2.38-13.65-6.42-15-14.57-1.26-7.58,2.12-16,7.8-21.07,7-6.24,17.82-3.47,26-1.84,10.48,2.08,21.13,3.1,31.71,4.52,43.26,5.81,86.27,13.27,129.39,20q15.63,2.44,31.3,4.71c8.28,1.19,18.23,3.52,22.85-5.52,2.65-5.19,3.34-13.87-2.19-17.58-4.85-3.25-12.31-3.19-17.9-3.69-7.19-.64-14.59-.86-21.62-2.66-3.28-.84-4.68,4.23-1.4,5.08,6.79,1.74,13.93,2.06,20.89,2.66,3.6.31,7.22.59,10.79,1.18,2,.33,5,.58,6.59,2,2.25,2,1.75,6.3.9,8.86-1.52,4.56-4.9,6.12-9.63,5.69-10.26-.92-20.53-2.93-30.71-4.49-40.76-6.26-81.38-13.35-122.2-19.15q-16.56-2.35-33.15-4.45c-9.06-1.13-18-3.6-27.12-4.28-8-.59-15.43,1.48-20.69,7.83A29.91,29.91,0,0,0,1527,357.5a22,22,0,0,0,9.26,17.18c5.85,4.09,13.57,5.77,20.43,7.22,8.42,1.78,17,2.92,25.48,4.1,8.18,1.14,16.27,2.75,24.43,3.95,9.46,1.39,19,2,28.47,3.32,8.91,1.25,17.75,3,26.66,4.31,19.21,2.82,38.49,5.09,57.76,7.5,9.66,1.21,19.31,2.45,29,3.82q6.82,1,13.64,2.05c2.08.34,4.17.68,6.25,1,1.74.3,3.6.07,4.4,1.73,1,2.13.85,6.69-.64,8.57-.73.9-3.21.46-4.82.24-6.14-.85-12.18-2.56-18.18-4.07-7.61-1.92-15.44-2.73-23.19-3.88l-34.47-5.1-68.92-10.2q-34.66-5.13-69.34-10.26c-11.72-1.72-26.38-2.35-32.35-14.37-3.41-6.86-4.09-15.18-4-22.72.07-8.28,1.28-17.08,5.26-24.46,4.24-7.89,11.32-10.77,20-10.68,9.4.09,18.88,2.14,28.16,3.48,44.28,6.39,88.61,12.59,133,17.83q16.7,2,33.42,3.76c3.37.36,3.34-4.9,0-5.26Z" transform="translate(-7.56 -41.23)"/>
        <path class="cls-2" d="M1769.66,366.64a13.32,13.32,0,0,1-.18,15.91,2.71,2.71,0,0,0-.41,3.18,15.92,15.92,0,0,1-1.14,18.31c-2.16,2.58,1.54,6.32,3.72,3.72a21.27,21.27,0,0,0,2-24.68l-.41,3.19a18.59,18.59,0,0,0,1-22.29c-2-2.73-6.52-.11-4.55,2.66Z" transform="translate(-7.56 -41.23)"/>
        <path class="cls-2" d="M1740.11,386.5l29.23,3.12c1.68.18,1.67-2.45,0-2.63l-29.23-3.13c-1.68-.18-1.67,2.46,0,2.64Z" transform="translate(-7.56 -41.23)"/>
        <path class="cls-2" d="M1750.69,381.39a74.66,74.66,0,0,0,20.88,1.29c1.67-.14,1.69-2.77,0-2.63a72.31,72.31,0,0,1-20.18-1.2c-1.65-.34-2.36,2.2-.7,2.54Z" transform="translate(-7.56 -41.23)"/>
        <path class="cls-2" d="M1531.32,363.35l42.77,6c1.65.23,2.37-2.31.7-2.54l-42.77-6c-1.66-.23-2.37,2.31-.7,2.54Z" transform="translate(-7.56 -41.23)"/>
      </g>
      <g>
        <path class="cls-2" d="M1749.82,172.86c-47-5-93.78-11.24-140.53-17.88q-17.36-2.46-34.69-5c-8.32-1.21-16.86-3-25.28-1.86-8.12,1.07-14.21,5.33-18.4,12.3s-6.73,15.08-8.3,23c-2.59,13.15-3.68,31.61,8.94,40.22,5.19,3.54,11.68,4.45,17.78,5.1,8.83,1,17.59,1.87,26.38,3.17l144,21.32c17.12,2.53,34.21,6,51.56,6.1,3.3,0,6.62,0,9.91-.28,2.16-.18,4.69-.28,6.65-1.35a7.75,7.75,0,0,0,3.89-8.05c-.79-4.3-4.12-5.69-8-6.36-38.81-6.74-78.16-9.8-117-16-9.49-1.52-18.9-3.2-28.46-4.2-9.89-1-19.62-2.43-29.42-4.1-16.41-2.81-33.56-3.56-49.39-9-7.21-2.5-13-7-14-15-.92-7.57,2.67-16.42,8.81-21,7.32-5.5,18-2.51,26.12-.9,10.64,2.11,21.49,3.08,32.24,4.53,42.75,5.78,85.25,13.14,127.86,19.81q15.93,2.49,31.88,4.79c8.18,1.17,17.73,3.23,22.28-5.6,2.67-5.18,3.32-13.88-2.2-17.58-4.85-3.25-12.3-3.19-17.89-3.69-7.2-.65-14.6-.86-21.63-2.66-3.28-.85-4.68,4.23-1.39,5.07,6.79,1.74,13.93,2.07,20.89,2.67,3.6.31,7.22.59,10.79,1.18,2,.33,5,.56,6.58,2,2.26,2,1.74,6.37.9,8.88-1.43,4.31-4.59,6-9.09,5.74-10.22-.69-20.55-2.89-30.68-4.45-40.74-6.25-81.35-13.33-122.16-19.15q-16.21-2.31-32.47-4.37c-9.19-1.16-18.25-3.5-27.45-4.36-8-.74-15.64.88-21.08,7.08a30.32,30.32,0,0,0-7.7,19.68,22.1,22.1,0,0,0,8.3,17.62c5.62,4.36,13.24,6.16,20.06,7.67,8.4,1.85,16.94,3,25.46,4.2,8.06,1.12,16,2.63,24.07,3.88,9.36,1.45,18.81,2.11,28.21,3.31,9.08,1.17,18.07,3,27.12,4.35,19,2.82,38,5.07,57.08,7.45,9.7,1.21,19.4,2.44,29.08,3.8,4.59.65,9.18,1.32,13.76,2,2,.3,3.89.62,5.84.94,1.74.29,5.39.26,6.78,1.43,3.05,2.58-1.33,4.18-3.18,4.42a74.65,74.65,0,0,1-8.72.41,144.67,144.67,0,0,1-16.91-.61c-10.08-1.09-21.51-3.17-32.06-4.73l-34.09-5.05L1622,233.52l-34.45-5.1c-9.82-1.45-19.63-3.17-29.51-4.09-6.43-.6-13.18-.74-19.34-2.93s-9.73-7.11-11.32-13.36c-1.89-7.38-1.17-15.31.25-22.71,1.49-7.81,3.87-15.76,8.06-22.57,4.55-7.39,11.54-9.86,20-9.7,9.46.17,19,2.22,28.33,3.57,44.08,6.35,88.19,12.52,132.42,17.74q16.71,2,33.43,3.76c3.36.36,3.34-4.91,0-5.27Z" transform="translate(-7.56 -41.23)"/>
        <path class="cls-2" d="M1782.77,202.9a13.31,13.31,0,0,1-.19,15.91,2.74,2.74,0,0,0-.41,3.19,15.92,15.92,0,0,1-1.14,18.31c-2.16,2.58,1.55,6.32,3.73,3.72a21.31,21.31,0,0,0,2-24.69l-.41,3.19a18.58,18.58,0,0,0,1-22.28c-2-2.74-6.51-.11-4.54,2.65Z" transform="translate(-7.56 -41.23)"/>
        <path class="cls-2" d="M1753.22,222.76l29.23,3.13c1.68.18,1.66-2.46,0-2.64l-29.23-3.12c-1.68-.18-1.67,2.45,0,2.63Z" transform="translate(-7.56 -41.23)"/>
        <path class="cls-2" d="M1763.8,217.65a74.61,74.61,0,0,0,20.87,1.29c1.68-.13,1.69-2.76,0-2.63a71.86,71.86,0,0,1-20.17-1.2c-1.65-.33-2.36,2.2-.7,2.54Z" transform="translate(-7.56 -41.23)"/>
        <path class="cls-2" d="M1544.43,199.62l42.76,6c1.66.24,2.37-2.3.7-2.53l-42.76-6c-1.66-.23-2.38,2.3-.7,2.54Z" transform="translate(-7.56 -41.23)"/>
      </g>
      <g>
        <path class="cls-2" d="M1764,253.68c-50.72-3.32-101.11-9.69-151.38-17.05q-19-2.77-37.91-5.63c-9.91-1.48-20.11-3.68-30.18-3.21-9,.41-17.44,3.43-22.88,10.91s-7.66,17.14-8.46,26.29c-1.35,15.42.18,36.79,14,46.65,5.65,4,12.66,5.58,19.41,6.61,10.57,1.6,21.25,2.65,31.87,3.93l160.69,19.51L1759,344.1c5.39.65,11.71,1.17,16.5,2,6.61,1.2,13.1,3,19.72,4.19,4.64.85,12.73,3.23,16.46-.9,4-4.4,4.06-14.59-.2-18.83-1.41-1.4-3-1.52-4.91-1.8q-3.81-.57-7.64-1.08-7.62-1-15.26-1.93c-11.08-1.31-22.19-2.45-33.3-3.56-22.48-2.23-45-4.25-67.42-7-10.65-1.29-21.24-3.15-31.91-4.25-11.4-1.17-22.88-1.59-34.23-3.23-18.72-2.71-37.89-3.87-56.37-8-7.82-1.73-17.12-3.89-21.7-11.12s-3.66-16.55.18-23.81c2.15-4.05,5.18-8,9.38-10s9.26-2.17,13.93-1.81c5.16.39,10.24,1.44,15.35,2.27,5.62.92,11.29,1.4,17,2,49.06,4.93,97.88,11.86,146.75,18.35q17.61,2.34,35.23,4.54,8.92,1.09,17.87,2.14c5.31.61,11.08,1.79,16.08-.81,6.75-3.51,9.37-13.44,6.86-20.31-3.46-9.49-14.14-7.62-22.11-6.87a132,132,0,0,1-13.49.11c-5.92-.06-11.82-.28-17.71-.8-3.38-.3-3.36,5,0,5.26,10,.89,20.69,1.6,30.74.74,4.36-.37,9.53-1.81,13.8-.36s4.86,6,4.2,9.8c-.79,4.55-3.38,8.26-8.24,8.75-5.51.55-11.6-.94-17.08-1.59q-16.86-2-33.7-4.22c-46.32-6-92.55-12.76-139-17.86-12.06-1.33-24.3-2-36.27-4-9-1.5-18.65-3.87-27.78-1.7-16,3.8-24.4,24.95-18.25,39.49,6.67,15.74,28,17.66,42.67,19.68,9.1,1.25,18.23,2.13,27.34,3.26,10,1.24,20,3,30,3.81,10.57.87,21,1.73,31.55,3.27,9.91,1.46,19.85,2.67,29.8,3.78,21.92,2.44,43.89,4.39,65.83,6.63,10.55,1.08,21.09,2.22,31.61,3.55,4.94.62,9.85,1.44,14.79,2,1.77.21,2.17.68,2.68,2.43a13.9,13.9,0,0,1,.32,5.56c-.31,2.43-.74,4.23-3,4.34a41.78,41.78,0,0,1-9.11-1c-6.55-1.17-13-2.88-19.5-4.14-10.67-2.08-21.77-2.75-32.56-4.06l-38.57-4.68-77.25-9.37q-37.36-4.54-74.74-9.06c-6.95-.84-14.44-1.57-20.81-4.7s-10.13-8.57-12.27-15.1c-2.86-8.7-3.53-18.2-3-27.3s2.57-19.24,8.54-26.38,16.06-8,24.88-7.36c10.75.76,21.48,2.89,32.13,4.48,47.68,7.13,95.42,14.06,143.45,18.43q18.33,1.67,36.69,2.86c3.38.23,3.36-5,0-5.26Z" transform="translate(-7.56 -41.23)"/>
        <path class="cls-2" d="M1803.56,282.64a15.44,15.44,0,0,1-.1,18.84,2.55,2.55,0,0,0,0,2.66,18.28,18.28,0,0,1-.7,21c-2.09,2.63,1.61,6.38,3.72,3.72a23.59,23.59,0,0,0,1.52-27.41v2.66a20.42,20.42,0,0,0,.11-24.15c-2-2.68-6.58-.06-4.55,2.65Z" transform="translate(-7.56 -41.23)"/>
        <path class="cls-2" d="M1770.63,305.91l33,2.66c1.69.13,1.68-2.5,0-2.63l-33-2.66c-1.69-.13-1.68,2.5,0,2.63Z" transform="translate(-7.56 -41.23)"/>
        <path class="cls-2" d="M1777.23,295.14c9.86,1.77,19.74,3.48,29.73,4.31,1.69.14,1.68-2.49,0-2.63-9.76-.81-19.4-2.48-29-4.22-1.66-.29-2.37,2.24-.7,2.54Z" transform="translate(-7.56 -41.23)"/>
        <path class="cls-2" d="M1535.49,286.07l48.28,5.48c1.68.19,1.67-2.44,0-2.63l-48.28-5.49c-1.68-.19-1.66,2.45,0,2.64Z" transform="translate(-7.56 -41.23)"/>
      </g>
      <path class="cls-2" d="M1536.66,272.39l39.23,4.44c1.68.19,1.67-2.45,0-2.63l-39.23-4.44c-1.68-.19-1.67,2.44,0,2.63Z" transform="translate(-7.56 -41.23)"/>
      <path class="cls-2" d="M1550,187.13l16,2.32a1.36,1.36,0,0,0,1.62-.92,1.33,1.33,0,0,0-.92-1.62l-16-2.32a1.35,1.35,0,0,0-1.62.92,1.33,1.33,0,0,0,.92,1.62Z" transform="translate(-7.56 -41.23)"/>
      <path class="cls-2" d="M1532.3,354l27.38,5.16c1.66.32,2.37-2.22.7-2.53L1533,351.44c-1.65-.31-2.36,2.22-.7,2.54Z" transform="translate(-7.56 -41.23)"/>
    </g>
    <g>
      <path class="cls-2" d="M2397.27,246.94c4.31,4.18,5.63,10.86,6,16.86.58,9.32-.73,18.72-2.52,27.85-4.76,24.22-13.22,47.77-22.56,70.56A550.23,550.23,0,0,1,2346.41,428a193.86,193.86,0,0,1-14,21.71,49.16,49.16,0,0,1-5.31,6,8.08,8.08,0,0,1-2,1.57,43.83,43.83,0,0,1-10.92,4.45c-18.13,5.09-37.1,1.28-55.38-.8-22.36-2.56-44.57-6.33-66.66-10.62-21.94-4.26-43.72-9.19-65.51-14.14-22.35-5.09-44.89-9.75-66.71-16.88a146.5,146.5,0,0,1-28.8-12.48c-8.27-4.85-16.4-10.63-19.61-20.08-2.94-8.65-2.14-18.17-1.37-27.11a214.79,214.79,0,0,1,5.47-33.05c2.18-8.86,4.38-20.31,12.75-25.54,4.45-2.79,9.88-3.35,15-3.68,4.71-.3,9.44-.48,14.16-.64,19.81-.69,39.64-.58,59.44.06,41.76,1.33,83.45,4.89,124.91,10.05q29.71,3.69,59.28,8.65c9,1.52,18,3.56,27.11,4.06,5.84.32,12-.12,17.18-3.11,4.5-2.6,7.73-6.78,10.76-10.9,2-2.73-2.55-5.36-4.54-2.66-3,4.11-6.4,8.36-11.34,10.17-6.84,2.52-15,1.22-22,.11-19.79-3.17-39.49-6.65-59.35-9.35-42.49-5.77-85.24-9.86-128.08-11.75-20.85-.92-41.73-1.32-62.59-.89-9.71.19-19.59.2-29.24,1.29s-17.65,5.14-22.32,14c-4.79,9.07-6.79,20-8.71,29.93a212.27,212.27,0,0,0-3.81,32.77c-.28,8.37.47,17,4.54,24.5,4.67,8.58,13.3,14.21,21.61,18.86,19.35,10.82,41.51,16.32,62.9,21.46q33.91,8.14,68.07,15.42c22.72,4.89,45.55,9.36,68.52,12.91,10.72,1.66,21.47,3,32.23,4.3,9,1.07,18,2.46,27.05,2.82,9.89.4,20.05-.32,29.46-3.54,4.41-1.5,8.79-3.28,12.21-6.5,5-4.76,9-10.86,12.72-16.66,12.56-19.54,22.86-40.63,32.27-61.84,10.65-24,20.24-48.72,26.8-74.19a182.62,182.62,0,0,0,5.71-32.05c.56-7.78.52-16.21-2.39-23.58a22,22,0,0,0-5-7.85c-2.43-2.36-6.16,1.36-3.72,3.72Z" transform="translate(-7.56 -41.23)"/>
      <path class="cls-2" d="M2022.05,307.93c1.17-7.76,7.82-15,12.61-20.83,9.07-11,19.09-21.15,29.18-31.18,13-13,26.44-25.64,39.86-38.23q10.73-10,21.39-20.15a39.62,39.62,0,0,1,9.55-7.18c4.55-2.24,9.76-2.9,14.74-3.46,40.85-4.51,81.91-7.52,123-9.48q31-1.47,62-2,15-.27,30-.33l7.84,0c2.15,0,5.08-.49,7.13.29,3.81,1.44,2.75,9.47,2.83,12.68,1,40.62-9.19,80.39-30.56,115-1.78,2.89,2.77,5.53,4.55,2.65a211.61,211.61,0,0,0,31.28-106.19q.17-6.9-.07-13.8c-.14-4,.14-8.67-2.09-12.14-2.06-3.2-5.65-3.72-9.15-3.78-5.65-.1-11.32,0-17,0q-32,.21-64,1.38-65.28,2.42-130.33,8.86c-9.86,1-20.85,1-30.19,4.59-7.93,3.07-13.57,9.58-19.63,15.25-15,14-30,28-44.74,42.31-12.89,12.51-25.77,25.18-37.43,38.88a131,131,0,0,0-11.1,14.59c-2.08,3.28-4.21,7-4.79,10.86-.51,3.32,4.56,4.75,5.07,1.4Z" transform="translate(-7.56 -41.23)"/>
      <path class="cls-2" d="M2325.68,447.34c18.61-25.77,29.69-55.74,39.79-85.62,8.33-24.64,17.51-49,25.46-73.79,4-12.51,8-25.29,9.74-38.35.45-3.31-4.63-4.74-5.08-1.4-1.54,11.47-4.84,22.7-8.27,33.72-3.87,12.43-8.19,24.71-12.57,37-9.34,26.18-17.36,52.93-28,78.63-6.85,16.59-15.12,32.61-25.64,47.18-2,2.75,2.57,5.38,4.54,2.66Z" transform="translate(-7.56 -41.23)"/>
      <path class="cls-2" d="M2071.09,291.52c-11.53.81-25.88,5-30.78,16.72-2.13,5.1-2.55,10.94-3,16.4-.56,7.05-.78,14.13-1.51,21.18a106,106,0,0,1-1.75,11.48c-.78,3.64-2.14,7.15-2.62,10.85A26.78,26.78,0,0,0,2035,385c7.49,12.8,21.88,16.12,35.09,20.16,32.65,10,66,17.42,99.12,25.59,29.56,7.3,59.11,14.53,88.84,21.14,12,2.68,24.32,5.11,36.69,5.45,10.14.29,22.3-.7,29.62-8.65,2.3-2.49-1.42-6.22-3.72-3.72-6,6.5-16,7.23-24.28,7.14-10.51-.11-20.94-1.92-31.2-4.06-26.05-5.43-51.92-11.76-77.74-18.19-30.75-7.67-61.69-14.66-92.28-23-7.71-2.1-15.4-4.29-23.05-6.62-7-2.12-14.63-3.83-21.08-7.23a28.07,28.07,0,0,1-12.51-12.68c-2.73-5.87-2.07-11.35-.4-17.37,4-14.39,3.16-29.32,5.05-44,.82-6.37,2.48-11.95,7.91-15.86,5.77-4.15,13.06-5.92,20-6.4,3.36-.24,3.39-5.5,0-5.27Z" transform="translate(-7.56 -41.23)"/>
      <path class="cls-2" d="M2043.94,311.66q41.64,3,83.22,6.7,41.07,3.66,82.1,7.91,40.88,4.22,81.72,8.79c13.59,1.51,27.18,3.09,40.77,4.59,3,.33,6.13.55,9-.61a14.86,14.86,0,0,0,6-5,138.94,138.94,0,0,0,10-15A171,171,0,0,0,2379.11,251q.46-4.42.7-8.88c.1-1.69-2.54-1.68-2.63,0a167.21,167.21,0,0,1-28,83.88c-3.23,4.84-6.54,11.11-13.07,11.3a71.4,71.4,0,0,1-9.88-.89l-9.72-1.1L2296.16,333q-40-4.47-80.12-8.66t-80.4-7.85q-40.68-3.69-81.42-6.72l-10.28-.74c-1.69-.12-1.68,2.51,0,2.63Z" transform="translate(-7.56 -41.23)"/>
      <path class="cls-2" d="M2042,327.19c32.61,7,65.47,12.78,98.39,18.06s65.81,10.05,98.71,15.11q24.85,3.81,49.66,7.94c13.55,2.27,28.1,4.8,41.48.35,13-4.31,21.46-15.14,27.73-26.76a282,282,0,0,0,17.19-39.67c9.87-27.83,16.23-57.25,16.9-86.83.08-3.57.07-7.13,0-10.7a1.32,1.32,0,0,0-2.63,0c.78,29.24-4.45,58.48-13.24,86.3a319.19,319.19,0,0,1-15.9,40.46c-5.57,11.72-12,24.4-23.53,31.35-12.36,7.47-27.61,6.08-41.26,3.95-15.85-2.48-31.66-5.21-47.51-7.67-32.34-5-64.72-9.71-97-14.8s-64.42-10.57-96.39-17.14q-5.91-1.22-11.82-2.49c-1.65-.35-2.35,2.18-.7,2.54Z" transform="translate(-7.56 -41.23)"/>
      <path class="cls-2" d="M2042,343.32q48.33,11.63,96.76,22.77c32,7.36,64,14.73,96,21.58a449.71,449.71,0,0,0,47.82,8.05c14,1.44,28.9,2.51,42.78-.78a45.65,45.65,0,0,0,17.17-7.77,46.16,46.16,0,0,0,12.21-14.84A169.06,169.06,0,0,0,2363,353.7q4.35-10.84,8.6-21.74c11.22-29,21.35-58.8,25.63-89.75q.78-5.61,1.31-11.25c.15-1.69-2.48-1.68-2.63,0-2.85,30.66-11.9,60.3-22.58,89-5.25,14.14-10.67,28.29-16.6,42.16-2.57,6-5.49,12-9.69,17.07a37.86,37.86,0,0,1-16,11.25c-12.69,4.74-26.85,4.26-40.15,3.32-16-1.13-31.86-3.84-47.57-7-31.53-6.44-62.88-13.82-94.25-21q-47.41-10.87-94.71-22.19l-11.66-2.8c-1.64-.4-2.35,2.14-.7,2.54Z" transform="translate(-7.56 -41.23)"/>
      <path class="cls-2" d="M2037.79,363.16q33.66,12.24,67.95,22.67t69.07,19q34.79,8.55,70,15.2c11.59,2.19,23.2,4.31,34.86,6.09,10.6,1.62,21.49,2.77,32.14.84a48,48,0,0,0,25.57-13.63c6.77-6.8,11.89-15.07,16.54-23.41q1.73-3.11,3.4-6.24c.8-1.5-1.47-2.83-2.28-1.33-8.88,16.57-19.24,35-38.47,40.78-10.33,3.1-21.4,2.47-32,1.06-11.44-1.52-22.82-3.67-34.16-5.77q-34.6-6.4-68.83-14.64t-68-18.28q-33.72-10-66.89-21.85c-2.76-1-5.52-2-8.28-3-1.59-.58-2.28,2-.7,2.54Z" transform="translate(-7.56 -41.23)"/>
      <path class="cls-2" d="M2066.32,385q7.69,2.66,15.45,5.06c1.62.51,2.31-2,.7-2.54q-7.75-2.42-15.45-5.05c-1.6-.55-2.29,2-.7,2.53Z" transform="translate(-7.56 -41.23)"/>
      <path class="cls-2" d="M2036.62,373.44c5,2.28,10.15,4.38,15.31,6.37a1.33,1.33,0,0,0,1.62-.92,1.35,1.35,0,0,0-.92-1.62c-5-1.9-9.85-3.91-14.68-6.1a1.36,1.36,0,0,0-1.8.47,1.32,1.32,0,0,0,.47,1.8Z" transform="translate(-7.56 -41.23)"/>
      <path class="cls-2" d="M2155.27,227c6.18-8,12.05-16.36,19.5-23.21a45.77,45.77,0,0,1,25.88-12c6.83-.81,13.8-.79,20.67-1.11l22.21-1,44.1-2.05,22.21-1c3.07-.14,6.53-.51,9,1.69a10.12,10.12,0,0,1,3,7.29c.07,3.46-1.12,6.79-2.33,10-1.28,3.38-2.6,6.75-3.91,10.12l-4,10.22c-1.15,3-2.1,6.28-3.89,9s-4.66,3.69-7.73,4.18c-3.39.54-6.85.78-10.27,1.12q-11,1.06-22,1.76-21.87,1.36-43.81,1.25-22.1-.12-44.13-1.74-10.85-.81-21.67-2c-2.63-.29-8.86-.41-8.27-4.56.37-2.57,2.54-4.88,4.23-6.68.84-.9,0-2.68-1.28-2.2-.42.15-.82.36-1.23.54-1.55.68-.21,3,1.33,2.27.2-.09.4-.2.6-.27-.42-.74-.85-1.47-1.28-2.2-2.7,2.87-6.89,7.83-4.21,12,2.5,3.88,8.76,3.6,12.69,4q23.43,2.43,47,3.15,23.37.72,46.76-.27,11.67-.48,23.34-1.4c7.55-.59,15.19-1.09,22.68-2.22a14,14,0,0,0,7.93-3.42c2.14-2.09,3.22-5,4.28-7.7q4.24-11,8.48-21.94c2.27-5.88,4.87-12.41,2-18.58a10.21,10.21,0,0,0-5.36-5.34c-3.23-1.29-7-.73-10.33-.58l-94.4,4.39c-6.57.31-13.17.38-19.58,2a45.1,45.1,0,0,0-13.72,6.06c-8.52,5.62-14.92,13.75-21.09,21.74-1.79,2.31-3.56,4.63-5.35,6.94-1,1.32.82,3.19,1.86,1.86Z" transform="translate(-7.56 -41.23)"/>
      <path class="cls-2" d="M2043.45,319.89l13.75,1.44a1.32,1.32,0,0,0,1.32-1.31,1.35,1.35,0,0,0-1.32-1.32l-13.75-1.44a1.31,1.31,0,0,0-1.31,1.31,1.35,1.35,0,0,0,1.31,1.32Z" transform="translate(-7.56 -41.23)"/>
      <path class="cls-2" d="M2019.44,307.64c4.79-10.08,12.47-18.14,23.63-20.64,5-1.13,10.1-.93,15.22-.68,6.37.3,12.75.49,19.12.65,13.61.34,27.21.5,40.82.94,13.09.43,26.1,1.37,39.14,2.55q38.76,3.53,77.43,8,20.4,2.38,40.78,5,11.36,1.44,22.72,2.93c6.52.85,13,1.93,19.57,2.6,5.83.59,12,1,17.73-.46s10.41-5.06,14.4-9.16c9.14-9.42,16-21.17,21.27-33.11,1.43-3.27,2.78-6.57,4.13-9.86.64-1.57-1.9-2.25-2.54-.7a200.81,200.81,0,0,1-9.21,20.27,116.62,116.62,0,0,1-11,16.33c-3.74,4.72-8,9.33-13.46,12.08s-11.46,2.69-17.27,2.31c-6.52-.41-13-1.5-19.43-2.38-7.46-1-14.93-1.95-22.39-2.91q-20.47-2.61-41-5.06-38.53-4.56-77.19-8.11c-13.08-1.2-26.14-2.32-39.26-2.81-13.51-.51-27-.69-40.53-1-6.42-.14-12.85-.31-19.27-.56-5.37-.22-10.77-.78-16.12-.15a35.16,35.16,0,0,0-25,14.61,49.75,49.75,0,0,0-4.63,8c-.72,1.52,1.55,2.86,2.27,1.33Z" transform="translate(-7.56 -41.23)"/>
      <path class="cls-2" d="M2005.17,358.86c0,11,2.43,21.89,9.4,30.68,7.33,9.25,18.4,15.7,29.06,20.39,11.11,4.88,22.83,8.13,34.57,11.1,13.5,3.42,27,6.72,40.6,9.76,28.75,6.44,57.73,11.57,86.61,17.35,26.57,5.31,53,11.47,79.91,14.51,17,1.91,38.78,2.94,50.75-11.76a33.65,33.65,0,0,0,3.88-6c.76-1.51-1.51-2.84-2.28-1.33-4.18,8.23-11.51,13.43-20.35,15.72s-18,2-26.94,1.23c-25.45-2.24-50.46-7.95-75.43-13.13-27.83-5.76-55.85-10.58-83.64-16.56-14.06-3-28.07-6.24-42-9.75-11.43-2.87-22.93-5.58-34.08-9.45s-22.15-9-31.37-16.6A39.93,39.93,0,0,1,2008.25,367a71.2,71.2,0,0,1-.45-8.13,1.32,1.32,0,0,0-2.63,0Z" transform="translate(-7.56 -41.23)"/>
      <path class="cls-2" d="M2385.26,203.71a20.59,20.59,0,0,1,11.62,17.52,18.7,18.7,0,0,1-.45,5.22c-.46,2-1.47,3.77-.84,5.81s2,3.86,2.38,6.12a14.11,14.11,0,0,1-.7,7.14c-1.11,3.21,4,4.58,5.08,1.4a19.12,19.12,0,0,0-.93-14.67,3.28,3.28,0,0,1-.23-3.25,22,22,0,0,0,.7-3.2,24.12,24.12,0,0,0,.1-6.35c-1-8.56-6.18-16.57-14.08-20.29-3-1.43-5.72,3.1-2.65,4.55Z" transform="translate(-7.56 -41.23)"/>
    </g>
    <g>
      <path class="cls-2" d="M467.88,397.2a354.08,354.08,0,0,1,86.77-106.78,346.63,346.63,0,0,1,31.58-23.25,2.67,2.67,0,0,0,.94-3.6C559.55,223,529.8,183.8,503.56,142.26c-6.8-10.76-13.35-21.68-19.32-32.92-1.58-3-6.13-.34-4.54,2.65,11.11,21,24.13,40.87,37.4,60.49,14.24,21,29,41.71,43.69,62.45,7.35,10.38,14.68,20.77,21.84,31.29.31-1.2.62-2.4.94-3.6a358.64,358.64,0,0,0-99.65,97.76,353.26,353.26,0,0,0-20.59,34.16c-1.58,3,3,5.66,4.55,2.66Z" transform="translate(-7.56 -41.23)"/>
      <path class="cls-2" d="M405.44,431.69c.42-10.29,2.75-25.35,12.6-31.06,5.81-3.38,14.34-2.59,20.56-1,7.24,1.89,13.76,5.64,20.22,9.29,2.95,1.67,5.61-2.88,2.66-4.55-7.35-4.14-14.87-8.42-23.2-10.22-7.2-1.57-16.31-1.92-22.9,1.9-11.61,6.75-14.71,23.35-15.2,35.61-.13,3.39,5.13,3.38,5.26,0Z" transform="translate(-7.56 -41.23)"/>
      <path class="cls-2" d="M109.2,279.78c11.5,23.32,21,47.69,30.65,71.8,11.44,28.43,22.62,57,34.47,85.24,5.07,12.1,10.21,24.21,16,36a2.67,2.67,0,0,0,3.6.95c46.44-24.33,99.3-34.15,151.16-37.79,14.65-1,29.33-1.52,44-1.65,3.38,0,3.39-5.29,0-5.26-53,.45-107.1,5.6-157.51,22.91a287.61,287.61,0,0,0-40.31,17.24l3.6.95c-11.5-23.32-20.95-47.7-30.65-71.8-11.44-28.43-22.61-57-34.47-85.24-5.07-12.11-10.2-24.21-16-36-1.5-3-6-.37-4.55,2.66Z" transform="translate(-7.56 -41.23)"/>
      <path class="cls-2" d="M331.37,230.47a1154.88,1154.88,0,0,0,59.34,124.66q9.07,16.55,18.79,32.75c1.74,2.9,6.29.25,4.54-2.66a1134.89,1134.89,0,0,1-62.86-121.5q-7.69-17.19-14.74-34.65c-1.25-3.1-6.34-1.75-5.07,1.4Z" transform="translate(-7.56 -41.23)"/>
      <path class="cls-2" d="M394.53,430.13c-.56-14.57,4.44-30.72,17.54-38.66,16.62-10.07,36.48-1.25,50.75,8.83,2.77,2,5.4-2.6,2.66-4.54-13.2-9.33-29.91-17-46.38-12.86-12.38,3.09-21.52,12.71-26.16,24.33a56.05,56.05,0,0,0-3.67,22.9c.13,3.38,5.39,3.39,5.26,0Z" transform="translate(-7.56 -41.23)"/>
      <path class="cls-2" d="M125.05,247.59c21.69,51.22,40.19,103.73,60.5,155.49,5.53,14.07,11.19,28.08,17.08,42a2.63,2.63,0,0,0,3,1.21c46-15.26,94.19-22.77,142.45-26.08,13.71-.94,27.44-1.54,41.18-1.91,3.38-.09,3.39-5.35,0-5.26-48.64,1.29-97.44,5.65-144.88,16.83Q224,434.66,204.2,441.21l3,1.21C185.48,391.2,167,338.69,146.67,286.93q-8.28-21.1-17.07-42c-1.32-3.11-5.85-.43-4.55,2.66Z" transform="translate(-7.56 -41.23)"/>
      <path class="cls-2" d="M138.47,235.11c27.81,45.45,48.11,95.53,63.64,146.39q6.46,21.18,11.68,42.72a2.66,2.66,0,0,0,3.23,1.84,559.59,559.59,0,0,1,138.87-22.77q20.07-.72,40.15,0c3.39.12,3.39-5.14,0-5.26a565.13,565.13,0,0,0-140.93,12.75q-19.92,4.36-39.49,10.19l3.24,1.84c-12.62-52.21-30.6-103.52-54.52-151.65C157.78,258,150.71,245,143,232.46c-1.76-2.89-6.31-.25-4.54,2.65Z" transform="translate(-7.56 -41.23)"/>
      <path class="cls-2" d="M411.34,384.32C364.05,375.66,313,370.11,266,383A135.66,135.66,0,0,0,229,398.86l3.86,1.57A604.39,604.39,0,0,0,155.18,226a11,11,0,0,0-1.3-2c-.21-.33-.43-.66-.65-1-.9,2.59-1,3.51-.26,2.76.1.06-.69.1.2,0,.24,0,1.18-.48,2-.76,2.81-.94,5.69-1.67,8.56-2.4,8.26-2.08,16.61-3.87,24.95-5.59s16.51-3.33,24.79-4.82a136.16,136.16,0,0,1,20-2.07c34-1.44,68.55,1.74,96.9,22.23,2.75,2,5.38-2.57,2.66-4.54-25.66-18.55-56.91-23.6-87.93-23.27-9.48.1-19.07.21-28.44,1.78-7.84,1.31-15.64,2.84-23.44,4.4-9,1.8-17.95,3.69-26.86,5.82-3.47.82-6.94,1.68-10.36,2.69a22,22,0,0,0-5.95,2.22c-3.88,2.61.08,6.46,1.84,9.19q6.74,10.4,13,21.06,12.74,21.58,23.65,44.19a599.93,599.93,0,0,1,39.23,106,2.66,2.66,0,0,0,3.86,1.58c20.33-12.85,44.17-18.83,67.9-21.18,24.15-2.39,48.57-1.3,72.63,1.46,12.64,1.44,25.21,3.41,37.72,5.7,3.31.61,4.73-4.46,1.4-5.07Z" transform="translate(-7.56 -41.23)"/>
      <path class="cls-2" d="M441.63,102.42a135.65,135.65,0,0,1,14.14-3.89l-3-1.21a954,954,0,0,0,75,126.49q12,17.1,24.79,33.65c.31-1.2.63-2.4.94-3.6A243.13,243.13,0,0,0,453.24,390.1c-.93,3.26,4.14,4.65,5.07,1.39a239.54,239.54,0,0,1,68.4-110.17,233.34,233.34,0,0,1,29.5-22.91c1.07-.71,1.85-2.43.94-3.6a953,953,0,0,1-80.52-123.08q-10-18.31-19.29-37.07a2.67,2.67,0,0,0-3-1.21,135.53,135.53,0,0,0-14.13,3.9c-3.2,1.07-1.83,6.15,1.39,5.07Z" transform="translate(-7.56 -41.23)"/>
      <path class="cls-2" d="M407.54,80.64c-12.73,14.3-24,30.06-34.31,46.15-13.2,20.56-25,42.32-33.18,65.4A146.25,146.25,0,0,0,331.58,230c-.25,3.38,5,3.36,5.26,0,1.71-23.06,10.69-45.36,21-65.81a405.79,405.79,0,0,1,36.23-58.38c5.44-7.38,11.11-14.62,17.21-21.47,2.25-2.52-1.46-6.26-3.72-3.72Z" transform="translate(-7.56 -41.23)"/>
      <path class="cls-2" d="M443.45,383A267.63,267.63,0,0,1,532,252.18a2.64,2.64,0,0,0,0-3.72c-6.25-5.25-12.23-10.88-18-16.62-2.41-2.39-6.13,1.33-3.72,3.72,5.8,5.74,11.78,11.37,18,16.62v-3.72a272.93,272.93,0,0,0-89.92,133.12c-1,3.25,4.09,4.63,5.08,1.4Z" transform="translate(-7.56 -41.23)"/>
      <path class="cls-2" d="M414.7,94.94A149.19,149.19,0,0,1,436,84.73l-3.23-1.84a484.59,484.59,0,0,0,49.62,112.67q9.06,15,19.2,29.34l.41-3.19c-17.48,16.67-33.26,34.67-46.6,54.85a302.2,302.2,0,0,0-32.56,65.33,294.79,294.79,0,0,0-11,39.8c-.68,3.3,4.39,4.72,5.07,1.4a295.56,295.56,0,0,1,61.16-128.37,333.18,333.18,0,0,1,27.69-29.29,2.65,2.65,0,0,0,.41-3.19,479.68,479.68,0,0,1-57.35-108q-6.06-16.14-10.94-32.7a2.65,2.65,0,0,0-3.24-1.83A156.23,156.23,0,0,0,412,90.39c-2.93,1.7-.28,6.25,2.66,4.55Z" transform="translate(-7.56 -41.23)"/>
      <path class="cls-2" d="M115,278.69a81.09,81.09,0,0,1,21.27-6.34,2.65,2.65,0,0,0,1.84-3.24,2.7,2.7,0,0,0-3.24-1.84,85.9,85.9,0,0,0-22.53,6.88,2.65,2.65,0,0,0-.94,3.6,2.68,2.68,0,0,0,3.6.94Z" transform="translate(-7.56 -41.23)"/>
      <path class="cls-2" d="M128.69,248.59a8.76,8.76,0,0,1,.85-.47l.37-.17c-.33.15-.22.08.05,0q.94-.34,1.92-.6c.74-.19,1.49-.34,2.25-.46l.61-.1s.55-.07.27,0l.4,0,.63-.07a82.08,82.08,0,0,1,8.73-.32,2.63,2.63,0,1,0,0-5.26,79,79,0,0,0-9.23.37c-3.24.36-6.67.9-9.51,2.62a2.64,2.64,0,0,0,2.66,4.55Z" transform="translate(-7.56 -41.23)"/>
      <path class="cls-2" d="M139.33,234.87a44.91,44.91,0,0,0,13.81-2.7,2.69,2.69,0,0,0,1.84-3.24,2.66,2.66,0,0,0-3.23-1.84,43.65,43.65,0,0,1-6.34,1.81c-.52.1-1,.2-1.56.28l-.84.13c.57-.09-.22,0-.27,0-1.14.14-2.27.22-3.41.27a2.63,2.63,0,0,0,0,5.26Z" transform="translate(-7.56 -41.23)"/>
      <path class="cls-2" d="M460.45,105.43l6.63-4.34,3.4-2.23,1.61-1a3.82,3.82,0,0,0,.83-.54c.3-.35.52.06-.07-.25a.55.55,0,0,1-.54-.22c-.18-.2-.2-.2-.07,0a4.22,4.22,0,0,0,.36.7c.27.58.53,1.17.79,1.75l1.67,3.68c1.11,2.45,2.22,4.91,3.34,7.36a2.65,2.65,0,0,0,3.6,1,2.69,2.69,0,0,0,.94-3.6q-1.94-4.27-3.86-8.53L477.23,95a5,5,0,0,0-3.18-3c-1.63-.43-3.11.3-4.44,1.17l-3.94,2.58-7.87,5.15a2.69,2.69,0,0,0-.95,3.6,2.65,2.65,0,0,0,3.6,1Z" transform="translate(-7.56 -41.23)"/>
      <path class="cls-2" d="M428.87,382.45c15.08-44.34,31.66-90,61.73-126.71a184.53,184.53,0,0,1,28-27.7,2.65,2.65,0,0,0,0-3.72,283.12,283.12,0,0,1-37.19-45.74C470.79,162,462,144.4,453.89,126.51c-1.4-3.08-5.94-.41-4.55,2.65,8.26,18.2,17.21,36.13,28.11,52.9a288.68,288.68,0,0,0,37.47,46v-3.72c-37.86,30-60.32,74.07-77.36,118.31-4.89,12.7-9.38,25.54-13.76,38.42-1.1,3.22,4,4.6,5.07,1.4Z" transform="translate(-7.56 -41.23)"/>
      <path class="cls-2" d="M407.34,85c14.59,41.79,39.32,79.24,67.3,113.24,8,9.69,16.28,19.12,24.79,28.35,2.3,2.49,6-1.24,3.72-3.72-29.44-31.93-56.68-66.58-76.32-105.49a277.54,277.54,0,0,1-14.41-33.78c-1.11-3.17-6.2-1.81-5.08,1.4Z" transform="translate(-7.56 -41.23)"/>
      <path class="cls-2" d="M369.46,188.12c8.06-16.34,17.28-32.19,28.63-46.48,1-1.32-.81-3.19-1.86-1.86-11.5,14.47-20.88,30.46-29,47-.74,1.51,1.52,2.84,2.27,1.32Z" transform="translate(-7.56 -41.23)"/>
      <path class="cls-2" d="M352,233.63a229.09,229.09,0,0,1,12.25-34.26c.68-1.53-1.59-2.87-2.27-1.32a233,233,0,0,0-12.52,34.88,1.32,1.32,0,0,0,2.54.7Z" transform="translate(-7.56 -41.23)"/>
      <path class="cls-2" d="M404.47,175.32q4.06-6,8.44-11.72a1.34,1.34,0,0,0-.48-1.81,1.35,1.35,0,0,0-1.8.48Q406.27,168,402.2,174a1.32,1.32,0,1,0,2.27,1.33Z" transform="translate(-7.56 -41.23)"/>
      <path class="cls-2" d="M366.75,254.14C374.27,232.37,383,211,394.59,191a1.32,1.32,0,0,0-2.27-1.33c-11.68,20.15-20.51,41.77-28.1,63.75-.56,1.6,2,2.29,2.53.7Z" transform="translate(-7.56 -41.23)"/>
      <path class="cls-2" d="M408.53,212.69a211.65,211.65,0,0,1,16.25-24c1-1.32-.81-3.19-1.87-1.86a215.58,215.58,0,0,0-16.65,24.51,1.32,1.32,0,0,0,2.27,1.33Z" transform="translate(-7.56 -41.23)"/>
      <path class="cls-2" d="M378,278a548.54,548.54,0,0,1,22.89-51.4c.78-1.5-1.49-2.83-2.28-1.32a556.73,556.73,0,0,0-23.15,52c-.62,1.58,1.93,2.26,2.54.7Z" transform="translate(-7.56 -41.23)"/>
      <path class="cls-2" d="M399.57,277c9.36-19.13,19.75-37.85,32.31-55.09q5.47-7.53,11.51-14.6c1.1-1.28-.76-3.15-1.86-1.86-14.07,16.46-25.72,34.82-35.9,53.9q-4.32,8.08-8.34,16.33c-.74,1.51,1.53,2.85,2.28,1.32Z" transform="translate(-7.56 -41.23)"/>
      <path class="cls-2" d="M388.4,301.17q1.86-4.25,3.77-8.48a1.35,1.35,0,0,0-.47-1.8,1.33,1.33,0,0,0-1.8.47q-1.92,4.23-3.77,8.48a1.36,1.36,0,0,0,.47,1.8,1.33,1.33,0,0,0,1.8-.47Z" transform="translate(-7.56 -41.23)"/>
      <path class="cls-2" d="M430.26,272.32c5.86-10,12-19.9,18.64-29.4,1-1.39-1.3-2.7-2.27-1.33C439.94,251.09,433.85,261,428,271a1.32,1.32,0,0,0,2.28,1.33Z" transform="translate(-7.56 -41.23)"/>
      <path class="cls-2" d="M400.86,330.9c6.4-17,14.93-33,23.78-48.77.82-1.48-1.45-2.81-2.28-1.33-8.95,16-17.56,32.23-24,49.4-.6,1.59,1.95,2.27,2.54.7Z" transform="translate(-7.56 -41.23)"/>
      <path class="cls-2" d="M246.19,230.74c23.78-2.3,47.91-.28,70.71,7,1.62.52,2.31-2,.7-2.53-23-7.34-47.42-9.4-71.41-7.08-1.67.16-1.68,2.79,0,2.63Z" transform="translate(-7.56 -41.23)"/>
      <path class="cls-2" d="M197.7,241.2a242.67,242.67,0,0,1,31.86-8.13c1.66-.3.95-2.84-.7-2.54A244.26,244.26,0,0,0,197,238.66c-1.6.53-.92,3.07.7,2.54Z" transform="translate(-7.56 -41.23)"/>
      <path class="cls-2" d="M213.71,261c27.55-5.36,55.87-10.74,84-7.3A117,117,0,0,1,321,258.93c1.61.54,2.3-2,.7-2.54-27.25-9.19-56.49-7-84.4-2.39-8.11,1.33-16.17,2.87-24.23,4.44-1.67.33-1,2.86.69,2.54Z" transform="translate(-7.56 -41.23)"/>
      <path class="cls-2" d="M276.71,276.82a314.83,314.83,0,0,1,54,1.53c1.68.2,1.66-2.44,0-2.63a314.83,314.83,0,0,0-54-1.53c-1.68.09-1.69,2.73,0,2.63Z" transform="translate(-7.56 -41.23)"/>
      <path class="cls-2" d="M224.46,284.21c11.53-2.51,23.16-4.52,34.89-5.88,1.66-.19,1.68-2.83,0-2.63-12,1.39-23.83,3.41-35.59,6-1.65.36-.95,2.9.7,2.54Z" transform="translate(-7.56 -41.23)"/>
      <path class="cls-2" d="M334.18,301.94q5.63.31,11.24.77a1.32,1.32,0,1,0,0-2.63q-5.61-.45-11.24-.78a1.32,1.32,0,1,0,0,2.64Z" transform="translate(-7.56 -41.23)"/>
      <path class="cls-2" d="M238.61,310.32c20-6,40.79-8.51,61.6-9,5.87-.14,11.74-.13,17.61,0a1.32,1.32,0,0,0,0-2.63c-20.93-.43-42,.6-62.52,4.76q-8.79,1.79-17.39,4.37c-1.61.49-.92,3,.7,2.54Z" transform="translate(-7.56 -41.23)"/>
      <path class="cls-2" d="M281.59,326.72a353.27,353.27,0,0,1,70.18-1.55c1.69.13,1.68-2.5,0-2.63a353.27,353.27,0,0,0-70.18,1.55c-1.66.2-1.68,2.84,0,2.63Z" transform="translate(-7.56 -41.23)"/>
      <path class="cls-2" d="M247.33,332.73q8.56-2,17.23-3.47c1.67-.29,1-2.83-.7-2.53q-8.66,1.51-17.23,3.46c-1.65.37-.95,2.91.7,2.54Z" transform="translate(-7.56 -41.23)"/>
      <path class="cls-2" d="M331.69,349.6c12.76-.23,25.51.08,38.26.47,1.69.05,1.69-2.58,0-2.63-12.75-.39-25.5-.71-38.26-.47a1.32,1.32,0,0,0,0,2.63Z" transform="translate(-7.56 -41.23)"/>
      <path class="cls-2" d="M256.15,362.89c18.74-7.67,38.81-11.21,58.94-12.59,1.68-.11,1.69-2.74,0-2.63-20.35,1.4-40.69,4.92-59.64,12.69-1.55.63-.87,3.18.7,2.53Z" transform="translate(-7.56 -41.23)"/>
      <path class="cls-2" d="M389.31,426.8a13.39,13.39,0,0,0-.24,7.29,9,9,0,0,0,3.57,4.94,8.25,8.25,0,0,0,10.18-.86,9.31,9.31,0,0,0,2.61-6.53A2.66,2.66,0,0,0,402.8,429a2.69,2.69,0,0,0-2.63,2.63c0,.22,0,.44,0,.66s-.16.54,0-.29c0,.1,0,.21-.05.3a7,7,0,0,1-.3,1.11c0,.09-.07.17-.1.26.28-.84.23-.51.12-.31l-.2.39-.27.42c-.13.2-.38.38.21-.27l-.18.22a6.45,6.45,0,0,1-.66.62c.71-.65.36-.27.13-.11l-.43.25c-.25.13-.8.27.15-.05l-.35.13a3.6,3.6,0,0,1-.44.12c-.29.07-1,.09.11,0a7.5,7.5,0,0,1-.82,0l-.45,0c-.21,0-.49-.13.47.06l-.3-.05a6.09,6.09,0,0,1-.81-.22c-.61-.22.61.3.14.06a5.39,5.39,0,0,1-.48-.25l-.34-.21c-.54-.37.5.43.1.08a9.13,9.13,0,0,1-.7-.69c-.36-.4.45.63.06.07-.09-.13-.18-.26-.26-.4s-.15-.28-.22-.43l-.12-.24c.43.81.18.44.1.2a8.54,8.54,0,0,1-.32-1.23c0-.25,0-.56,0,.29,0-.14,0-.29,0-.43s0-.44,0-.66,0-.55,0-.83l0-.36c0-.46-.11.68,0,.19s.25-1.25.42-1.87a2.63,2.63,0,1,0-5.07-1.4Z" transform="translate(-7.56 -41.23)"/>
      <path class="cls-2" d="M456.36,407.77c3.14,1.74,7,2.94,10.42,1.31,2.84-1.34,3.72-4.85,2.72-7.65a13.13,13.13,0,0,0-3.4-5,2.63,2.63,0,0,0-3.72,3.72,13.65,13.65,0,0,1,1.36,1.49l-.41-.53a9.27,9.27,0,0,1,1.21,2l-.27-.63a5.57,5.57,0,0,1,.43,1.48l-.09-.7a4.35,4.35,0,0,1,0,1.14l.09-.7a3.89,3.89,0,0,1-.21.83l.26-.63a3.85,3.85,0,0,1-.41.71l.41-.53a3.58,3.58,0,0,1-.56.54l.54-.41a3.93,3.93,0,0,1-.77.44l.63-.27a5.15,5.15,0,0,1-1.15.31l.7-.09a7,7,0,0,1-1.83,0l.7.1a11.9,11.9,0,0,1-2.92-.84l.63.27a18.22,18.22,0,0,1-1.72-.84,2.63,2.63,0,1,0-2.65,4.54Z" transform="translate(-7.56 -41.23)"/>
    </g>
    <path class="cls-2" d="M566,138.7a9.65,9.65,0,1,1,9.64-9.64A9.65,9.65,0,0,1,566,138.7ZM566,122a7,7,0,1,0,7,7A7,7,0,0,0,566,122Z" transform="translate(-7.56 -41.23)"/>
    <path class="cls-2" d="M303,123.36a3.88,3.88,0,1,1,3.88-3.87A3.88,3.88,0,0,1,303,123.36Zm0-5.12a1.25,1.25,0,1,0,1.25,1.25A1.25,1.25,0,0,0,303,118.24Z" transform="translate(-7.56 -41.23)"/>
    <path class="cls-2" d="M246.63,523.74a11.57,11.57,0,1,1,11.57-11.56A11.57,11.57,0,0,1,246.63,523.74Zm0-20.5a8.94,8.94,0,1,0,8.94,8.94A8.94,8.94,0,0,0,246.63,503.24Z" transform="translate(-7.56 -41.23)"/>
    <path class="cls-2" d="M2077.81,165.34a5.8,5.8,0,1,1,5.8-5.8A5.8,5.8,0,0,1,2077.81,165.34Zm0-9a3.17,3.17,0,1,0,3.17,3.16A3.18,3.18,0,0,0,2077.81,156.38Z" transform="translate(-7.56 -41.23)"/>
    <path class="cls-2" d="M2233.64,64.47a9,9,0,1,1,9-9A9,9,0,0,1,2233.64,64.47Zm0-15.38a6.37,6.37,0,1,0,6.37,6.37A6.37,6.37,0,0,0,2233.64,49.09Z" transform="translate(-7.56 -41.23)"/>
    <path class="cls-2" d="M2227.87,124.68a5.8,5.8,0,1,1,5.8-5.8A5.8,5.8,0,0,1,2227.87,124.68Zm0-9a3.17,3.17,0,1,0,3.17,3.17A3.18,3.18,0,0,0,2227.87,115.71Z" transform="translate(-7.56 -41.23)"/>
    <path class="cls-2" d="M2033.78,460.34a5.16,5.16,0,1,1,5.15-5.15A5.16,5.16,0,0,1,2033.78,460.34Zm0-7.68a2.53,2.53,0,1,0,2.52,2.53A2.53,2.53,0,0,0,2033.78,452.66Z" transform="translate(-7.56 -41.23)"/>
    <path class="cls-2" d="M1552.49,460.4a5.16,5.16,0,1,1,5.16-5.16A5.17,5.17,0,0,1,1552.49,460.4Zm0-7.69a2.53,2.53,0,1,0,2.53,2.53A2.53,2.53,0,0,0,1552.49,452.71Z" transform="translate(-7.56 -41.23)"/>
    <path class="cls-2" d="M1446.77,99.24a12.85,12.85,0,1,1,12.84-12.85A12.87,12.87,0,0,1,1446.77,99.24Zm0-23.06A10.22,10.22,0,1,0,1457,86.39,10.22,10.22,0,0,0,1446.77,76.18Z" transform="translate(-7.56 -41.23)"/>
    <path class="cls-2" d="M1486.48,182.51a7.72,7.72,0,1,1,7.72-7.72A7.72,7.72,0,0,1,1486.48,182.51Zm0-12.81a5.09,5.09,0,1,0,5.09,5.09A5.1,5.1,0,0,0,1486.48,169.7Z" transform="translate(-7.56 -41.23)"/>
    <path class="cls-2" d="M521.67,422.78a7.73,7.73,0,1,1,7.72-7.72A7.73,7.73,0,0,1,521.67,422.78Zm0-12.81a5.09,5.09,0,1,0,5.09,5.09A5.09,5.09,0,0,0,521.67,410Z" transform="translate(-7.56 -41.23)"/>
    <path class="cls-2" d="M95.46,503.87A11.57,11.57,0,1,1,107,492.3,11.58,11.58,0,0,1,95.46,503.87Zm0-20.5a8.94,8.94,0,1,0,8.93,8.93A8.95,8.95,0,0,0,95.46,483.37Z" transform="translate(-7.56 -41.23)"/>
    <path class="cls-2" d="M2382.51,99.44a16.27,16.27,0,1,1,16.27-16.27A16.29,16.29,0,0,1,2382.51,99.44Zm0-29.91a13.64,13.64,0,1,0,13.63,13.64A13.66,13.66,0,0,0,2382.51,69.53Z" transform="translate(-7.56 -41.23)"/>
    <path class="cls-2" d="M2186.24,499.45a14.4,14.4,0,1,1,14.4-14.4A14.42,14.42,0,0,1,2186.24,499.45Zm0-26.17A11.77,11.77,0,1,0,2198,485.05,11.78,11.78,0,0,0,2186.24,473.28Z" transform="translate(-7.56 -41.23)"/>
    <path class="cls-2" d="M1755.21,73.76a12.53,12.53,0,1,1,12.53-12.53A12.54,12.54,0,0,1,1755.21,73.76Zm0-22.43a9.9,9.9,0,1,0,9.9,9.9A9.91,9.91,0,0,0,1755.21,51.33Z" transform="translate(-7.56 -41.23)"/>
    <path class="cls-2" d="M663.87,461.72a10.66,10.66,0,1,1,10.67-10.66A10.68,10.68,0,0,1,663.87,461.72Zm0-18.69a8,8,0,1,0,8,8A8,8,0,0,0,663.87,443Z" transform="translate(-7.56 -41.23)"/>
    <path class="cls-2" d="M112.37,121.14a5.06,5.06,0,1,1,5-5A5.06,5.06,0,0,1,112.37,121.14Zm0-7.48a2.43,2.43,0,1,0,2.42,2.43A2.43,2.43,0,0,0,112.37,113.66Z" transform="translate(-7.56 -41.23)"/>
    <g>
      <path class="cls-2" d="M516.88,43.38v9.49a1.32,1.32,0,1,0,2.63,0V43.38a1.32,1.32,0,1,0-2.63,0Z" transform="translate(-7.56 -41.23)"/>
      <path class="cls-2" d="M513.45,49.44h9.49a1.32,1.32,0,1,0,0-2.63h-9.49a1.32,1.32,0,1,0,0,2.63Z" transform="translate(-7.56 -41.23)"/>
    </g>
    <g>
      <path class="cls-2" d="M1740,484.15V501a2.34,2.34,0,0,0,4.67,0V484.15a2.34,2.34,0,1,0-4.67,0Z" transform="translate(-7.56 -41.23)"/>
      <path class="cls-2" d="M1733.89,494.91h16.84a2.34,2.34,0,1,0,0-4.67h-16.84a2.34,2.34,0,1,0,0,4.67Z" transform="translate(-7.56 -41.23)"/>
    </g>
    <g>
      <path class="cls-2" d="M1851.33,190.12V207a2.34,2.34,0,0,0,4.67,0V190.12a2.34,2.34,0,0,0-4.67,0Z" transform="translate(-7.56 -41.23)"/>
      <path class="cls-2" d="M1845.24,200.88h16.85a2.34,2.34,0,0,0,0-4.67h-16.85a2.34,2.34,0,0,0,0,4.67Z" transform="translate(-7.56 -41.23)"/>
    </g>
    <g>
      <path class="cls-2" d="M2435.38,368.13V385a2.34,2.34,0,1,0,4.67,0V368.13a2.34,2.34,0,1,0-4.67,0Z" transform="translate(-7.56 -41.23)"/>
      <path class="cls-2" d="M2429.29,378.88h16.85a2.33,2.33,0,0,0,0-4.66h-16.85a2.33,2.33,0,1,0,0,4.66Z" transform="translate(-7.56 -41.23)"/>
    </g>
    <g>
      <path class="cls-2" d="M886.88,194.71c-.51,36.37.36,72.76,1.2,109.11.73,32,1.77,64,2.32,96,.07,3.92.14,7.84.11,11.77,0,1,0,2.08-.08,3.13,0,.81-.21.42,0,.17,1.14-1.29.6-.75-.46-.24-12.34,6-28.27,5.77-41.65,4.49-6.24-.61-13.25-1.52-18.82-4.63-1.5-.84-3.13-2-3.58-3.54-.91-3.08-.63-7.83-.87-11.33-1.4-20.45-2.45-40.93-3.37-61.4q-3-65.74-4.18-131.56-.1-6.6-.19-13.2c0-3.38-5.3-3.39-5.26,0,.52,44.29,2,88.59,3.84,132.84.93,21.79,2,43.58,3.37,65.35q.45,7,1,14c.21,2.95,0,6.26,1.59,8.87,2.89,4.74,9.35,6.68,14.4,7.9a105.68,105.68,0,0,0,46.75.23c3.49-.79,11.3-2.36,12.55-6.41.62-2,.26-4.65.26-6.7-.06-29.06-1.28-58.13-2-87.18-.95-38.71-1.91-77.43-1.74-116.15q0-5.81.1-11.59c.05-3.39-5.21-3.39-5.26,0Z" transform="translate(-7.56 -41.23)"/>
      <path class="cls-2" d="M816.16,194.14c3.39,0,3.39-5.27,0-5.27s-3.39,5.27,0,5.27Z" transform="translate(-7.56 -41.23)"/>
      <path class="cls-2" d="M817.13,193.27A856.2,856.2,0,0,1,910,137.38c3-1.57.35-6.11-2.66-4.55a859.28,859.28,0,0,0-92.82,55.89c-2.77,1.92-.14,6.48,2.65,4.55Z" transform="translate(-7.56 -41.23)"/>
      <path class="cls-2" d="M890.84,194.4c23.53-16.71,48.11-32.07,70.2-50.72,2.59-2.19-1.15-5.9-3.72-3.73-21.74,18.37-46,33.45-69.14,49.91-2.73,1.94-.11,6.51,2.66,4.54Z" transform="translate(-7.56 -41.23)"/>
      <path class="cls-2" d="M942.16,414.92c-.42,2.08-3.75,3-5.62,3.57a50.62,50.62,0,0,1-12.66,1.77,63.43,63.43,0,0,1-13.13-.82c-2.94-.54-6.61-1.21-8.86-3.37.25.62.51,1.24.77,1.86-1.53-50.68-.54-101.42.56-152.11q.45-21,.93-41.94c.07-3.39-5.19-3.38-5.26,0-.89,40.4-1.92,80.79-2.18,121.2-.13,19.8-.08,39.61.34,59.41q.08,3.39.16,6.76c0,2.21-.27,4.88.23,7s2.87,3.28,4.7,4.1c4.74,2.14,10.16,2.78,15.31,3.06a64.36,64.36,0,0,0,19.37-1.57c3.95-1,9.49-3,10.41-7.55.67-3.31-4.4-4.72-5.07-1.4Z" transform="translate(-7.56 -41.23)"/>
      <path class="cls-2" d="M902.47,224.61A81.3,81.3,0,0,0,923,229.18c6.77.71,15.1,1,21-2.91,2.81-1.88.17-6.44-2.65-4.55-5.27,3.51-12.94,2.8-18.9,2.14a75.88,75.88,0,0,1-18.57-4.32c-3.16-1.21-4.53,3.87-1.4,5.07Z" transform="translate(-7.56 -41.23)"/>
      <path class="cls-2" d="M951.4,202.09c8,5.67,19.78,6.18,29.22,5.87a65.1,65.1,0,0,0,14.71-2c3.2-.86,6.73-2.1,8.69-4.95s-2.64-5.43-4.55-2.65c.24-.35-.63.55-.58.51a9.8,9.8,0,0,1-1.83,1,26.19,26.19,0,0,1-4.44,1.36,64,64,0,0,1-13.16,1.47c-8.26.16-18.4-.23-25.4-5.19-2.77-2-5.4,2.6-2.66,4.55Z" transform="translate(-7.56 -41.23)"/>
      <path class="cls-2" d="M949,198.55c-1.55,38.86-4,77.69-5.43,116.56-.72,19.79-1.17,39.59-1.06,59.39.06,9.82.25,19.64.63,29.45.15,3.9.11,7.92.57,11.79a7.6,7.6,0,0,0,2,4.39c5.26,5.76,15.9,6.26,23.08,6.64,9.73.52,20,0,29.48-2.52,3-.82,6.5-1.91,8.75-4.22a6.13,6.13,0,0,0,1.66-3,29.29,29.29,0,0,0,.17-5.85c0-2.9.06-5.79.08-8.69.15-20.54,0-41.09-.24-61.64-.53-46-1.5-92.06-.52-138.08.08-3.39-5.19-3.39-5.26,0-.84,39.25-.24,78.52.26,117.78.26,19.39.49,38.79.54,58.19q0,14.67-.09,29.34c0,2.27-.1,4.54-.08,6.81,0,.41,0,.82,0,1.23.07-.35.07-.37,0-.08-.19.63.28-.39-.1.17a9.71,9.71,0,0,1-2.34,1.55c-7.3,3.48-16.7,3.78-24.62,3.92s-18.12.34-25.17-3.77a5.68,5.68,0,0,1-2.14-1.88c-.28-.5-.18-.64-.25-1.67-.15-2.29-.23-4.6-.33-6.9-.41-9.38-.64-18.76-.74-28.15-.19-18.54.14-37.08.73-55.61,1.32-41.73,4.06-83.4,5.72-125.11.13-3.39-5.13-3.38-5.26,0Z" transform="translate(-7.56 -41.23)"/>
      <path class="cls-2" d="M1152.7,183c25.06,1.62,50.71,1.76,75.52-2.54,3.33-.57,1.92-5.65-1.4-5.07-24.32,4.21-49.56,3.94-74.12,2.34-3.38-.22-3.36,5,0,5.27Z" transform="translate(-7.56 -41.23)"/>
      <path class="cls-2" d="M1148.29,181.87c.5,17.63.57,35.28.72,52.92q.3,38.06.48,76.12c.14,23.44.28,46.89.54,70.33.13,12.14-.45,24.66.85,36.74.31,2.84,2.35,4.15,4.75,5.61,5.35,3.26,11.72,4.64,17.86,5.41a96.65,96.65,0,0,0,42-4,49.12,49.12,0,0,0,7.54-3.22c3-1.61.32-6.16-2.66-4.55-11.24,6.07-25.7,7.41-38.24,7.1-6.56-.16-13.27-.91-19.45-3.23a24.61,24.61,0,0,1-3.54-1.63c-1-.54-2.34-2.06-3.33-2.32.26.07.4,1.06.39.84-.26-11.61-.7-23.23-.84-34.86-.26-22.49-.39-45-.52-67.46q-.22-37.12-.47-74.25c-.14-18.41-.24-36.82-.66-55.23,0-1.45-.07-2.91-.11-4.36-.09-3.38-5.36-3.39-5.26,0Z" transform="translate(-7.56 -41.23)"/>
      <path class="cls-2" d="M1227.9,177.82q1.71,56.44,1.13,112.94c-.29,33-.72,66.08-3.55,98.95-.77,9-1,19.22-4.46,27.69-1.27,3.14,3.82,4.51,5.07,1.4,3-7.31,3.38-16,4.16-23.76,1.39-14,2.09-28.07,2.65-42.13,1.49-37.46,1.7-75,1.41-112.46q-.24-31.32-1.15-62.63c-.1-3.38-5.36-3.4-5.26,0Z" transform="translate(-7.56 -41.23)"/>
      <path class="cls-2" d="M1168.68,138.14c8.19,6.18,16.87,11.67,25.5,17.22,11.47,7.38,22.83,14.93,33.88,22.94,2.74,2,5.37-2.58,2.65-4.55-11-8-22.4-15.56-33.87-22.94-8.63-5.55-17.31-11-25.51-17.21-2.7-2-5.33,2.52-2.65,4.54Z" transform="translate(-7.56 -41.23)"/>
      <path class="cls-2" d="M1122.88,134.17c10.27,15.26,19.21,31.22,25.85,48.4,1.21,3.12,6.3,1.77,5.08-1.4a252,252,0,0,0-26.38-49.66c-1.88-2.79-6.45-.16-4.55,2.66Z" transform="translate(-7.56 -41.23)"/>
      <path class="cls-2" d="M1086.83,184.74c11.11,2.24,22.84,2,34.08,1.16,9.43-.75,21.13-1.5,29.28-6.88,2.82-1.86.18-6.42-2.65-4.54-3.25,2.13-7.17,3.12-10.91,3.94a115.22,115.22,0,0,1-16.54,2.28c-10.49.78-21.5,1.05-31.86-1-3.31-.66-4.72,4.41-1.4,5.08Z" transform="translate(-7.56 -41.23)"/>
      <path class="cls-2" d="M1084.17,184.38c-1.76,48.86,1.22,97.85,2.44,146.69.6,24.24.66,48.42-.34,72.65-.23,5.69-2.36,13.3,2.52,17.55s12.5,5.25,18.73,5.87a110,110,0,0,0,28.31-1c5.73-.92,14-2.11,17.71-7.24,2-2.75-2.58-5.38-4.54-2.65-.58.81-3.19,2-4.8,2.53a60.08,60.08,0,0,1-9.47,2.24,107.59,107.59,0,0,1-23.92,1.14c-5.75-.35-13.47-.8-18.22-4.53a5.84,5.84,0,0,1-1.55-1.81c-.23-.41.08.93,0,0,0-.58,0-1.2,0-1.79.15-4.43.37-8.87.55-13.31,1.84-47-.63-94-1.87-141-.67-25.1-1.26-50.24-.35-75.33.12-3.39-5.14-3.38-5.27,0Z" transform="translate(-7.56 -41.23)"/>
      <path class="cls-2" d="M1088.85,132c-1.84,15.72-3.45,31.48-4.68,47.26-.26,3.38,5,3.36,5.27,0,1.22-15.78,2.83-31.54,4.68-47.26.39-3.36-4.88-3.33-5.27,0Z" transform="translate(-7.56 -41.23)"/>
      <path class="cls-2" d="M1040.41,210.63c6,4.47,15,5.12,22.2,5.23,8,.12,16.64-.66,23.86-4.26,3-1.51.37-6-2.66-4.54-6.34,3.16-14.23,3.63-21.2,3.54-6.38-.09-14.21-.57-19.55-4.51-2.72-2-5.35,2.55-2.65,4.54Z" transform="translate(-7.56 -41.23)"/>
      <path class="cls-2" d="M1036.72,208.9c1.19,53.7,1.88,107.42,4.31,161.08q1.07,23.46,2.58,46.9c.22,3.36,5.49,3.38,5.27,0-3.54-54.05-4.87-108.2-6-162.34q-.45-22.81-.93-45.64c-.08-3.38-5.34-3.39-5.27,0Z" transform="translate(-7.56 -41.23)"/>
      <path class="cls-2" d="M1008.05,248.8a82.27,82.27,0,0,0,15.43,1.35,60.37,60.37,0,0,0,15.35-1.35c3.28-.83,1.89-5.91-1.4-5.07-4.51,1.14-9.32,1.2-14,1.16a75.64,75.64,0,0,1-14-1.16c-3.31-.66-4.72,4.41-1.4,5.07Z" transform="translate(-7.56 -41.23)"/>
      <path class="cls-2" d="M1041.28,208.86c4.72-9.25,12.93-16.26,17.65-25.52,1.54-3-3-5.67-4.54-2.65-4.73,9.25-12.93,16.26-17.66,25.51-1.53,3,3,5.68,4.55,2.66Z" transform="translate(-7.56 -41.23)"/>
      <path class="cls-2" d="M1027,214.43a323.82,323.82,0,0,0-22,27.67,2.66,2.66,0,0,0,.94,3.6,2.69,2.69,0,0,0,3.6-.95,311.3,311.3,0,0,1,21.17-26.6c2.25-2.52-1.46-6.25-3.72-3.72Z" transform="translate(-7.56 -41.23)"/>
      <path class="cls-2" d="M953.77,198.09c14.67-13.91,31.39-25.8,48-37.23,2.77-1.91.14-6.47-2.66-4.55-17,11.68-34.09,23.85-49.08,38.06-2.46,2.33,1.27,6,3.72,3.72Z" transform="translate(-7.56 -41.23)"/>
      <path class="cls-2" d="M907.28,138.05a493.59,493.59,0,0,1,55.19,1.82l-2.63-2.63c0,14-2,28-2,42,0,3.38,5.26,3.39,5.26,0,0-14,2-28,2-42a2.69,2.69,0,0,0-2.63-2.63,496,496,0,0,0-55.19-1.83c-3.38.1-3.39,5.36,0,5.27Z" transform="translate(-7.56 -41.23)"/>
      <path class="cls-2" d="M1132.06,139.36l37.39-1.62c3.38-.15,3.4-5.42,0-5.27l-37.39,1.63c-3.38.15-3.4,5.41,0,5.26Z" transform="translate(-7.56 -41.23)"/>
      <path class="cls-2" d="M1058.28,184.26h29.38c3.39,0,3.39-5.26,0-5.26h-29.38c-3.39,0-3.39,5.26,0,5.26Z" transform="translate(-7.56 -41.23)"/>
      <path class="cls-2" d="M1027.67,221.39c3.84-.46,7.69-.08,11.53-.54a2.91,2.91,0,0,0,1.86-.77,2.67,2.67,0,0,0,.77-1.86c-.06-1.29-1.17-2.81-2.63-2.64-3.84.47-7.69.09-11.53.55a2.81,2.81,0,0,0-1.86.77,2.63,2.63,0,0,0-.77,1.86c.06,1.28,1.17,2.81,2.63,2.63Z" transform="translate(-7.56 -41.23)"/>
      <path class="cls-2" d="M815.36,197.25c11.29,2.34,23,2.68,34.53,2.41a216.65,216.65,0,0,0,38.93-4.24c3.32-.68,1.91-5.76-1.4-5.07a208.3,208.3,0,0,1-37.53,4c-11,.26-22.3,0-33.14-2.22-3.3-.68-4.71,4.39-1.39,5.08Z" transform="translate(-7.56 -41.23)"/>
      <path class="cls-2" d="M903.48,223.66c21.78-13.88,41.28-31,63-44.92,2.85-1.82.22-6.37-2.65-4.55-21.78,13.88-41.28,31.05-63.06,44.93-2.84,1.81-.21,6.37,2.66,4.54Z" transform="translate(-7.56 -41.23)"/>
      <path class="cls-2" d="M1003,161.22c9.14,0,18.13,2.31,27.28,2.35,3.38,0,3.39-5.25,0-5.26-9.15,0-18.14-2.32-27.28-2.36-3.39,0-3.39,5.25,0,5.27Z" transform="translate(-7.56 -41.23)"/>
      <path class="cls-2" d="M1027.37,161.16c0,18.4-1.25,36.77-.55,55.17.13,3.38,5.39,3.4,5.26,0-.7-18.4.56-36.77.55-55.17,0-3.38-5.26-3.39-5.26,0Z" transform="translate(-7.56 -41.23)"/>
      <path class="cls-2" d="M1006.58,201.18c9.09-12,18.51-24.08,26-37.15,1.69-2.95-2.86-5.6-4.54-2.66-7.5,13.08-16.92,25.16-26,37.15a2.65,2.65,0,0,0,1,3.6,2.69,2.69,0,0,0,3.6-.94Z" transform="translate(-7.56 -41.23)"/>
      <path class="cls-2" d="M1093.4,134.67a257.08,257.08,0,0,1,31.28-.64c3.39.14,3.38-5.12,0-5.26a257.08,257.08,0,0,0-31.28.64c-3.35.27-3.38,5.53,0,5.26Z" transform="translate(-7.56 -41.23)"/>
      <path class="cls-2" d="M967.74,178.15l.45-.06-.7.09a17.43,17.43,0,0,1,4.39,0l-.7-.09a17.81,17.81,0,0,1,3.39.81,2.64,2.64,0,0,0,3.24-1.84,2.68,2.68,0,0,0-1.84-3.23,19.8,19.8,0,0,0-9.63-.76,2.58,2.58,0,0,0-1.57,1.21,2.63,2.63,0,0,0,.94,3.6,3,3,0,0,0,2,.26Z" transform="translate(-7.56 -41.23)"/>
      <path class="cls-2" d="M945.68,225.26l5.58-4.28a3,3,0,0,0,1.21-1.57,2.63,2.63,0,0,0-1.83-3.24,2.57,2.57,0,0,0-2,.27L943,220.71a2.11,2.11,0,0,0-.74.68,2,2,0,0,0-.47.9,2.62,2.62,0,0,0,1.84,3.23,2.5,2.5,0,0,0,2-.26Z" transform="translate(-7.56 -41.23)"/>
      <path class="cls-2" d="M1006.56,418.42a51.84,51.84,0,0,0,36.77,2.61c3.23-1,1.85-6.07-1.4-5.08a46.2,46.2,0,0,1-32.72-2.08,2.71,2.71,0,0,0-3.6.95,2.66,2.66,0,0,0,.95,3.6Z" transform="translate(-7.56 -41.23)"/>
      <path class="cls-2" d="M1043.93,418.28c1.35,3,4.64,4.61,7.51,5.72a44.12,44.12,0,0,0,12.66,2.5c7.92.55,18,0,24.21-5.5,2.54-2.25-1.19-6-3.72-3.72-2.26,2-5.56,2.86-8.5,3.41a46.8,46.8,0,0,1-11.52.58,41.52,41.52,0,0,1-10.66-2,16.12,16.12,0,0,1-3.75-1.78,4,4,0,0,1-1.68-1.91c-1.41-3.07-5.94-.4-4.55,2.66Z" transform="translate(-7.56 -41.23)"/>
      <path class="cls-2" d="M828.61,196.44,852.28,180c1.38-1,.06-3.24-1.33-2.27l-23.67,16.49c-1.38,1-.07,3.24,1.33,2.27Z" transform="translate(-7.56 -41.23)"/>
      <path class="cls-2" d="M900.9,150.73l20-13.47c1.4-.94.08-3.22-1.33-2.27l-20,13.46c-1.39,1-.08,3.23,1.33,2.28Z" transform="translate(-7.56 -41.23)"/>
      <path class="cls-2" d="M920.34,144l4.87-3.65a1.42,1.42,0,0,0,.6-.78,1.31,1.31,0,0,0-1.93-1.49L919,141.73a1.45,1.45,0,0,0-.6.79,1.31,1.31,0,0,0,1.93,1.48Z" transform="translate(-7.56 -41.23)"/>
      <path class="cls-2" d="M855.53,196.1c15.52-12.21,31.23-24.3,47.83-35,1.42-.91.1-3.19-1.33-2.27-16.79,10.82-32.67,23.06-48.36,35.41-1.33,1,.55,2.89,1.86,1.86Z" transform="translate(-7.56 -41.23)"/>
      <path class="cls-2" d="M872.38,192.16l23-17.21c1.34-1,0-3.29-1.32-2.27l-23,17.21c-1.34,1,0,3.29,1.33,2.27Z" transform="translate(-7.56 -41.23)"/>
      <path class="cls-2" d="M845.17,196.68,867.63,179c1.33-1-.55-2.9-1.86-1.86l-22.46,17.7c-1.33,1,.55,2.89,1.86,1.86Z" transform="translate(-7.56 -41.23)"/>
      <path class="cls-2" d="M919.37,224.65a226.34,226.34,0,0,1,19.86-16.14c1.36-1,0-3.26-1.33-2.27a231.25,231.25,0,0,0-20.39,16.55c-1.26,1.15.61,3,1.86,1.86Z" transform="translate(-7.56 -41.23)"/>
      <path class="cls-2" d="M932.65,224.54l8-7.17a1.31,1.31,0,0,0,0-1.86,1.34,1.34,0,0,0-1.86,0l-8,7.17a1.31,1.31,0,0,0,0,1.86,1.34,1.34,0,0,0,1.86,0Z" transform="translate(-7.56 -41.23)"/>
      <path class="cls-2" d="M1007.41,159.64l-23.36,20.07c-1.29,1.11.58,3,1.86,1.86l23.36-20.06c1.29-1.11-.58-3-1.86-1.87Z" transform="translate(-7.56 -41.23)"/>
      <path class="cls-2" d="M1002,176.39A210.65,210.65,0,0,1,1020.31,160a1.32,1.32,0,0,0,0-1.86,1.34,1.34,0,0,0-1.86,0,210.65,210.65,0,0,0-18.31,16.38,1.32,1.32,0,0,0,1.86,1.86Z" transform="translate(-7.56 -41.23)"/>
      <path class="cls-2" d="M1069.33,181.14a164.65,164.65,0,0,0-11.11,22.33c-.64,1.57,1.9,2.25,2.53.7a159.83,159.83,0,0,1,10.86-21.7,1.32,1.32,0,0,0-2.28-1.33Z" transform="translate(-7.56 -41.23)"/>
      <path class="cls-2" d="M1074.54,182q-3.13,7.08-6.26,14.18a1.36,1.36,0,0,0,.48,1.8,1.33,1.33,0,0,0,1.8-.48q3.12-7.08,6.25-14.17a1.35,1.35,0,0,0-.47-1.8,1.33,1.33,0,0,0-1.8.47Z" transform="translate(-7.56 -41.23)"/>
      <path class="cls-2" d="M1023.93,234.28l-8,12.43c-.92,1.43,1.36,2.75,2.27,1.32q4-6.21,8-12.42c.92-1.43-1.36-2.75-2.27-1.33Z" transform="translate(-7.56 -41.23)"/>
      <path class="cls-2" d="M1027.48,236.06l-4.44,7.1a1.33,1.33,0,0,0,.47,1.8,1.35,1.35,0,0,0,1.8-.47l4.44-7.1a1.32,1.32,0,0,0-2.27-1.33Z" transform="translate(-7.56 -41.23)"/>
      <path class="cls-2" d="M1099,152.44q1.23,14.66,2.44,29.3c.14,1.67,2.78,1.69,2.63,0q-1.21-14.66-2.44-29.3c-.14-1.68-2.77-1.69-2.63,0Z" transform="translate(-7.56 -41.23)"/>
      <path class="cls-2" d="M1107.13,162.19a120.19,120.19,0,0,0,2.64,20.78c.36,1.65,2.9.95,2.54-.7a116,116,0,0,1-2.55-20.08c-.06-1.69-2.69-1.7-2.63,0Z" transform="translate(-7.56 -41.23)"/>
      <path class="cls-2" d="M1120,139.67l15.8,37.34c.66,1.56,2.93.22,2.27-1.33l-15.8-37.34c-.66-1.55-2.92-.21-2.27,1.33Z" transform="translate(-7.56 -41.23)"/>
      <path class="cls-2" d="M1124.91,167q1.75,4.89,3.52,9.77a1.32,1.32,0,1,0,2.54-.7l-3.53-9.77a1.34,1.34,0,0,0-1.61-.92,1.32,1.32,0,0,0-.92,1.62Z" transform="translate(-7.56 -41.23)"/>
      <path class="cls-2" d="M1172.38,154.16q13.75,11.53,27.52,23.06c1.29,1.08,3.16-.77,1.86-1.86q-13.77-11.52-27.52-23.06c-1.29-1.08-3.16.78-1.86,1.86Z" transform="translate(-7.56 -41.23)"/>
      <path class="cls-2" d="M1177.58,167.62q5.31,5.32,10.63,10.66a1.32,1.32,0,0,0,1.86-1.86q-5.33-5.32-10.63-10.67a1.32,1.32,0,0,0-1.86,1.87Z" transform="translate(-7.56 -41.23)"/>
      <path class="cls-2" d="M1138.63,140l10.64,13.32a1.32,1.32,0,0,0,1.86-1.86l-10.64-13.32a1.33,1.33,0,0,0-1.86,0,1.35,1.35,0,0,0,0,1.86Z" transform="translate(-7.56 -41.23)"/>
      <path class="cls-2" d="M1148.15,143.33l2.66,4.44a1.32,1.32,0,0,0,2.27-1.33q-1.32-2.22-2.66-4.43a1.31,1.31,0,1,0-2.27,1.32Z" transform="translate(-7.56 -41.23)"/>
      <path class="cls-2" d="M1163.23,170.84l6.21,8.87a1.35,1.35,0,0,0,1.8.47,1.32,1.32,0,0,0,.48-1.8l-6.22-8.87a1.35,1.35,0,0,0-1.8-.47,1.33,1.33,0,0,0-.47,1.8Z" transform="translate(-7.56 -41.23)"/>
      <path class="cls-2" d="M1152.12,255.23a286.13,286.13,0,0,0,78.17-3.69c3.32-.62,1.91-5.7-1.4-5.08a280.65,280.65,0,0,1-76.77,3.5c-3.37-.3-3.35,5,0,5.27Z" transform="translate(-7.56 -41.23)"/>
      <path class="cls-2" d="M1155.45,337.08c13.81,3.69,28.46,4.05,42.63,2.65,11.35-1.12,23.23-3.07,33.61-8,3-1.46.39-6-2.66-4.54-9.76,4.67-21.27,6.43-31.94,7.41-13.4,1.24-27.19.93-40.24-2.55-3.28-.88-4.68,4.2-1.4,5.07Z" transform="translate(-7.56 -41.23)"/>
      <path class="cls-2" d="M1086.83,227.56c20.27,5.62,42.89,3,63.15-1.31,3.31-.71,1.91-5.78-1.39-5.08-19.33,4.13-41,6.67-60.36,1.31-3.27-.91-4.66,4.17-1.4,5.08Z" transform="translate(-7.56 -41.23)"/>
      <path class="cls-2" d="M1088.73,379.79c9.88,6.62,23.44,7.28,34.93,6.48,10-.7,22.56-2.33,30.48-9.22,2.56-2.23-1.18-5.94-3.73-3.73-3,2.65-7.22,4-11,5.07a79.63,79.63,0,0,1-16.52,2.67c-10.38.63-22.54.17-31.47-5.81-2.82-1.9-5.46,2.66-2.66,4.54Z" transform="translate(-7.56 -41.23)"/>
      <path class="cls-2" d="M1006.56,278.77a57.52,57.52,0,0,0,33.33.56c3.25-.92,1.87-6-1.4-5.07a52.42,52.42,0,0,1-30.53-.57c-3.24-1-4.62,4-1.4,5.08Z" transform="translate(-7.56 -41.23)"/>
      <path class="cls-2" d="M1006.62,391.69a58,58,0,0,0,30.58,3c2.91-.49,5.78-1.32,7.87-3.52,2.33-2.46-1.39-6.19-3.72-3.72-1.7,1.79-4.49,2-6.82,2.36a53.64,53.64,0,0,1-9,.42,54.74,54.74,0,0,1-17.55-3.63c-3.16-1.21-4.53,3.87-1.4,5.07Z" transform="translate(-7.56 -41.23)"/>
      <path class="cls-2" d="M1009,377.88a41.7,41.7,0,0,0,31.67.1,2.72,2.72,0,0,0,1.84-3.24,2.64,2.64,0,0,0-3.24-1.83,37.44,37.44,0,0,1-28.87-.1c-1.31-.55-2.89.59-3.24,1.83a2.71,2.71,0,0,0,1.84,3.24Z" transform="translate(-7.56 -41.23)"/>
      <path class="cls-2" d="M1007.34,293.9a67.1,67.1,0,0,0,32.48.32c3.29-.79,1.9-5.86-1.4-5.07a61.21,61.21,0,0,1-29.68-.33c-3.28-.85-4.68,4.22-1.4,5.08Z" transform="translate(-7.56 -41.23)"/>
      <path class="cls-2" d="M948.93,267.91a188.17,188.17,0,0,0,56.81.07c3.33-.51,1.92-5.58-1.4-5.08a179.5,179.5,0,0,1-54-.07c-3.31-.51-4.74,4.56-1.39,5.08Z" transform="translate(-7.56 -41.23)"/>
      <path class="cls-2" d="M945.87,353.79a150.19,150.19,0,0,0,58.38,1.65c3.33-.56,1.92-5.63-1.4-5.08a143.07,143.07,0,0,1-55.58-1.64c-3.3-.76-4.71,4.32-1.4,5.07Z" transform="translate(-7.56 -41.23)"/>
      <path class="cls-2" d="M898.75,279.7c3.81,6.15,11.72,8,18.47,8.37,9.69.53,19.47-2,28.13-6.28,3-1.5.37-6-2.66-4.55a52.42,52.42,0,0,1-24.26,5.62c-5.06-.13-12.19-1.06-15.14-5.82-1.78-2.87-6.33-.23-4.54,2.66Z" transform="translate(-7.56 -41.23)"/>
      <path class="cls-2" d="M898.44,385.6c5.77,4.8,14.43,5.9,21.68,6,8.58.08,17.83-1.67,24.52-7.39,2.57-2.2-1.16-5.91-3.73-3.72-5.56,4.76-13.72,5.92-20.79,5.85-5.68-.05-13.47-.69-18-4.43-2.59-2.15-6.33,1.56-3.72,3.73Z" transform="translate(-7.56 -41.23)"/>
      <path class="cls-2" d="M895.77,418.83l5.42-4.74a2.63,2.63,0,0,0,.77-1.86,2.71,2.71,0,0,0-.77-1.86,2.65,2.65,0,0,0-1.86-.77,2.88,2.88,0,0,0-1.86.77l-5.42,4.74a2.63,2.63,0,0,0,0,3.72,2.61,2.61,0,0,0,1.86.77,2.88,2.88,0,0,0,1.86-.77Z" transform="translate(-7.56 -41.23)"/>
      <path class="cls-2" d="M845.18,252.27c10-2.08,19.71,7.34,20.34,17,.39,6.05-1.84,12.06-6.88,15.65a18.12,18.12,0,0,1-15.51,2.71c-6-1.78-9.83-7.07-10.87-13.16-1.53-9,3.55-19.91,12.92-22.19,3.29-.8,1.9-5.88-1.4-5.08-19.41,4.74-23.58,36.05-4.85,44.44A23.13,23.13,0,0,0,860,290.28a22.48,22.48,0,0,0,10.8-19.71c-.11-13.69-13.05-26.29-27-23.38C840.47,247.88,841.87,253,845.18,252.27Z" transform="translate(-7.56 -41.23)"/>
      <path class="cls-2" d="M815.48,296.11c7.06,6.56,17.1,9.29,26.42,10.56A87.55,87.55,0,0,0,874,305.22a45.47,45.47,0,0,0,14.32-5.84c1.4-.93.09-3.21-1.33-2.28-7.71,5.09-17.5,6.9-26.56,7.53-10.15.71-20.68-.08-30.38-3.31a34.63,34.63,0,0,1-12.75-7.07c-1.24-1.15-3.1.7-1.86,1.86Z" transform="translate(-7.56 -41.23)"/>
      <path class="cls-2" d="M821.35,385.87c17.24,7.86,36.91,10.75,55.41,5.88a68.3,68.3,0,0,0,14-5.4c1.51-.77.18-3-1.32-2.27-20.87,10.74-45.82,9.08-66.78-.48-1.53-.7-2.87,1.57-1.33,2.27Z" transform="translate(-7.56 -41.23)"/>
      <path class="cls-2" d="M1055.8,247.72c4.55-5.18,14.26-4.79,17.25,1.79,1.63,3.6,2.14,7.76,2.48,11.67s.37,7.89.4,11.85l.54,68.82q.06,8.52.13,17c0,2.83,0,5.67.12,8.49.13,2.4.43,4.79.44,7.19,0,4.51-1.38,8.38-5.41,10.69-3,1.71-7.4,2.77-10.55.84-3.56-2.19-5.89-7.11-6.42-11.13-.74-5.63-.84-11.43-1.15-17.1-.62-11.39-1-22.8-1.2-34.21s-.27-22.81-.27-34.21-.25-22.63.06-33.92c.06-2.35.32-4.87,1.85-6.76,1.06-1.31-.79-3.18-1.86-1.86-3.27,4-2.64,9.56-2.64,14.43q0,9.32,0,18.64c0,12.5,0,25,.17,37.49s.5,24.77,1.13,37.14q.47,9.31,1.18,18.6a21.17,21.17,0,0,0,5.27,12.94,10.81,10.81,0,0,0,10.29,3.35,15.26,15.26,0,0,0,9.79-5.71c3-4.11,2.52-9.41,2.15-14.19-.47-5.94-.28-12-.33-17.92q-.3-37.53-.59-75.05c-.07-8.74.48-18.31-2.54-26.66-1.22-3.36-3.12-6-6.49-7.34a14.8,14.8,0,0,0-11.1,0,12.2,12.2,0,0,0-4.52,3.23c-1.11,1.27.75,3.14,1.86,1.86Z" transform="translate(-7.56 -41.23)"/>
      <path class="cls-2" d="M979.63,206.53q3.55-3.85,7.12-7.72a1.32,1.32,0,0,0-1.86-1.86q-3.57,3.86-7.12,7.72a1.32,1.32,0,0,0,1.86,1.86Z" transform="translate(-7.56 -41.23)"/>
      <path class="cls-2" d="M978.31,193.34c-1.58,1.79-3.17,3.57-4.75,5.35a1.32,1.32,0,0,0,1.86,1.86l4.75-5.34a1.32,1.32,0,1,0-1.86-1.87Z" transform="translate(-7.56 -41.23)"/>
    </g>
    <path class="cls-2" d="M817.19,127.18a11.57,11.57,0,1,1,11.56-11.57A11.58,11.58,0,0,1,817.19,127.18Zm0-20.5a8.93,8.93,0,1,0,8.93,8.93A8.94,8.94,0,0,0,817.19,106.68Z" transform="translate(-7.56 -41.23)"/>
    <path class="cls-2" d="M1267.52,396.22a5.8,5.8,0,1,1,5.8-5.8A5.8,5.8,0,0,1,1267.52,396.22Zm0-9a3.17,3.17,0,1,0,3.16,3.17A3.17,3.17,0,0,0,1267.52,387.25Z" transform="translate(-7.56 -41.23)"/>
    <path class="cls-2" d="M1285.19,160.33a5.8,5.8,0,1,1,5.8-5.8A5.8,5.8,0,0,1,1285.19,160.33Zm0-9a3.17,3.17,0,1,0,3.17,3.16A3.18,3.18,0,0,0,1285.19,151.37Z" transform="translate(-7.56 -41.23)"/>
    <path class="cls-2" d="M997.57,52.83a5.8,5.8,0,1,1,5.8-5.8A5.81,5.81,0,0,1,997.57,52.83Zm0-9a3.17,3.17,0,1,0,3.17,3.17A3.17,3.17,0,0,0,997.57,43.86Z" transform="translate(-7.56 -41.23)"/>
    <path class="cls-2" d="M1338.12,486.28a8.8,8.8,0,1,1,8.79-8.79A8.81,8.81,0,0,1,1338.12,486.28Zm0-14.95a6.16,6.16,0,1,0,6.16,6.16A6.17,6.17,0,0,0,1338.12,471.33Z" transform="translate(-7.56 -41.23)"/>
    <path class="cls-2" d="M962.4,512.45a10.67,10.67,0,1,1,10.66-10.66A10.67,10.67,0,0,1,962.4,512.45Zm0-18.69a8,8,0,1,0,8,8A8,8,0,0,0,962.4,493.76Z" transform="translate(-7.56 -41.23)"/>
    <path class="cls-2" d="M655.84,86.26A10.66,10.66,0,1,1,666.51,75.6,10.67,10.67,0,0,1,655.84,86.26Zm0-18.69a8,8,0,1,0,8,8A8,8,0,0,0,655.84,67.57Z" transform="translate(-7.56 -41.23)"/>
    <g>
      <path class="cls-2" d="M844.6,46.85V63.7a2.34,2.34,0,0,0,4.67,0V46.85a2.34,2.34,0,0,0-4.67,0Z" transform="translate(-7.56 -41.23)"/>
      <path class="cls-2" d="M838.51,57.61h16.85a2.34,2.34,0,0,0,0-4.67H838.51a2.34,2.34,0,0,0,0,4.67Z" transform="translate(-7.56 -41.23)"/>
    </g>
    <g>
      <path class="cls-2" d="M1136,477.39v16.85a2.34,2.34,0,0,0,4.67,0V477.39a2.34,2.34,0,0,0-4.67,0Z" transform="translate(-7.56 -41.23)"/>
      <path class="cls-2" d="M1129.87,488.15h16.85a2.34,2.34,0,0,0,0-4.67h-16.85a2.34,2.34,0,0,0,0,4.67Z" transform="translate(-7.56 -41.23)"/>
    </g>
    <g>
      <path class="cls-2" d="M750.05,346.13V363a2.34,2.34,0,0,0,4.67,0V346.13a2.34,2.34,0,0,0-4.67,0Z" transform="translate(-7.56 -41.23)"/>
      <path class="cls-2" d="M744,356.89h16.85a2.34,2.34,0,0,0,0-4.67H744a2.34,2.34,0,1,0,0,4.67Z" transform="translate(-7.56 -41.23)"/>
    </g>
    <g>
      <path class="cls-2" d="M550.17,482.94v9.5a1.32,1.32,0,1,0,2.63,0v-9.5a1.32,1.32,0,0,0-2.63,0Z" transform="translate(-7.56 -41.23)"/>
      <path class="cls-2" d="M546.74,489h9.49a1.32,1.32,0,1,0,0-2.63h-9.49a1.32,1.32,0,1,0,0,2.63Z" transform="translate(-7.56 -41.23)"/>
    </g>
    <path class="cls-2" d="M1281.49,295.05a7.73,7.73,0,1,1,10.4,3.33A7.74,7.74,0,0,1,1281.49,295.05Zm11.4-5.86a5.09,5.09,0,1,0-2.2,6.85A5.11,5.11,0,0,0,1292.89,289.19Z" transform="translate(-7.56 -41.23)"/>
    <path class="cls-2" d="M1432.74,350.67a10.66,10.66,0,1,1,14.36,4.6A10.67,10.67,0,0,1,1432.74,350.67Zm16.62-8.55a8,8,0,1,0-3.47,10.81A8,8,0,0,0,1449.36,342.12Z" transform="translate(-7.56 -41.23)"/>
    <g>
      <path class="cls-2" d="M1361.85,259.27l-8.45,4.35a1.32,1.32,0,1,0,1.21,2.34l8.44-4.35a1.31,1.31,0,0,0-1.2-2.34Z" transform="translate(-7.56 -41.23)"/>
      <path class="cls-2" d="M1354.88,259l4.35,8.44a1.34,1.34,0,0,0,1.77.57,1.33,1.33,0,0,0,.57-1.77l-4.35-8.45a1.32,1.32,0,1,0-2.34,1.21Z" transform="translate(-7.56 -41.23)"/>
    </g>
    <g>
      <path class="cls-2" d="M2530.45,276.55,2522,280.9a1.32,1.32,0,1,0,1.21,2.34l8.44-4.35a1.34,1.34,0,0,0,.57-1.77,1.33,1.33,0,0,0-1.77-.57Z" transform="translate(-7.56 -41.23)"/>
      <path class="cls-2" d="M2523.48,276.27l4.35,8.45a1.32,1.32,0,1,0,2.34-1.21l-4.35-8.44a1.31,1.31,0,1,0-2.34,1.2Z" transform="translate(-7.56 -41.23)"/>
    </g>
    <g>
      <path class="cls-2" d="M16.72,278.63,8.27,283a1.34,1.34,0,0,0-.57,1.77,1.33,1.33,0,0,0,1.77.57L17.92,281a1.34,1.34,0,0,0,.57-1.77,1.33,1.33,0,0,0-1.77-.57Z" transform="translate(-7.56 -41.23)"/>
      <path class="cls-2" d="M9.75,278.35l4.35,8.44a1.32,1.32,0,0,0,1.77.57,1.34,1.34,0,0,0,.57-1.77l-4.35-8.44a1.32,1.32,0,0,0-1.77-.57,1.34,1.34,0,0,0-.57,1.77Z" transform="translate(-7.56 -41.23)"/>
    </g>
  </g>
  <path class="cls-3" d="M735.69,237.14a7.72,7.72,0,1,1,3.21,10.43A7.74,7.74,0,0,1,735.69,237.14Zm11.32,6a5.09,5.09,0,1,0-6.88,2.11A5.11,5.11,0,0,0,747,243.14Z" transform="translate(-7.56 -41.23)"/>
  <path class="cls-3" d="M634.68,344.54A10.66,10.66,0,1,1,639.11,359,10.67,10.67,0,0,1,634.68,344.54Zm16.51,8.76a8,8,0,1,0-10.85,3.33A8,8,0,0,0,651.19,353.3Z" transform="translate(-7.56 -41.23)"/>
  <g class="cls-1">
    <path class="cls-2" d="M669.18,234.14l-8.39-4.45a1.32,1.32,0,0,0-1.23,2.33l8.39,4.45a1.32,1.32,0,1,0,1.23-2.33Z" transform="translate(-7.56 -41.23)"/>
    <path class="cls-2" d="M665.43,228.27,661,236.66a1.32,1.32,0,0,0,2.33,1.23l4.45-8.39a1.32,1.32,0,1,0-2.33-1.23Z" transform="translate(-7.56 -41.23)"/>
  </g>
</svg>
