<svg xmlns="http://www.w3.org/2000/svg" xmlns:xlink="http://www.w3.org/1999/xlink" width="96.56mm" height="104.14mm" viewBox="0 0 273.73 295.19">
  <defs>
    <style>
      .cls-1 {
        fill: #116799;
      }

      .cls-2 {
        fill: url(#linear-gradient);
      }

      .cls-3 {
        fill: url(#linear-gradient-2);
      }

      .cls-4 {
        fill: url(#linear-gradient-3);
      }

      .cls-5 {
        fill: url(#linear-gradient-4);
      }

      .cls-6 {
        fill: url(#linear-gradient-5);
      }

      .cls-7 {
        fill: url(#Sfumatura_senza_nome_2);
      }

      .cls-8 {
        fill: url(#linear-gradient-6);
      }

      .cls-9 {
        fill: url(#linear-gradient-7);
      }

      .cls-10 {
        fill: #39c2ec;
      }

      .cls-11 {
        fill: url(#linear-gradient-8);
      }

      .cls-12 {
        fill: url(#linear-gradient-9);
      }

      .cls-13 {
        fill: url(#linear-gradient-10);
      }
    </style>
    <linearGradient id="linear-gradient" x1="258.32" y1="53.01" x2="259.98" y2="116.11" gradientUnits="userSpaceOnUse">
      <stop offset="0.09" stop-color="#97dded"/>
      <stop offset="0.63" stop-color="#06a0ca"/>
      <stop offset="0.97" stop-color="#116799"/>
    </linearGradient>
    <linearGradient id="linear-gradient-2" x1="243.03" y1="34.7" x2="221.62" y2="86.86" xlink:href="#linear-gradient"/>
    <linearGradient id="linear-gradient-3" x1="96.61" y1="68.05" x2="219.53" y2="137.23" gradientUnits="userSpaceOnUse">
      <stop offset="0.03" stop-color="#116799"/>
      <stop offset="0.37" stop-color="#06a0ca"/>
      <stop offset="0.91" stop-color="#97dded"/>
    </linearGradient>
    <linearGradient id="linear-gradient-4" x1="134.87" y1="121.95" x2="225.06" y2="147.9" xlink:href="#linear-gradient-3"/>
    <linearGradient id="linear-gradient-5" x1="251.07" y1="-29.31" x2="181.03" y2="96.24" xlink:href="#linear-gradient"/>
    <linearGradient id="Sfumatura_senza_nome_2" data-name="Sfumatura senza nome 2" x1="138.25" y1="141.55" x2="273.49" y2="141.55" xlink:href="#linear-gradient-3"/>
    <linearGradient id="linear-gradient-6" x1="479.51" y1="52.75" x2="481.17" y2="115.85" gradientTransform="matrix(-1, 0, 0, 1, 498, 0)" xlink:href="#linear-gradient"/>
    <linearGradient id="linear-gradient-7" x1="464.22" y1="34.45" x2="442.81" y2="86.6" gradientTransform="matrix(-1, 0, 0, 1, 498, 0)" xlink:href="#linear-gradient"/>
    <linearGradient id="linear-gradient-8" x1="130.33" y1="114.73" x2="46.32" y2="152.41" xlink:href="#linear-gradient-3"/>
    <linearGradient id="linear-gradient-9" x1="472.26" y1="-29.57" x2="402.21" y2="95.98" gradientTransform="matrix(-1, 0, 0, 1, 498, 0)" xlink:href="#linear-gradient"/>
    <linearGradient id="linear-gradient-10" x1="359.44" y1="141.29" x2="494.68" y2="141.29" gradientTransform="matrix(-1, 0, 0, 1, 498, 0)" xlink:href="#linear-gradient-3"/>
  </defs>
  <title>logo</title>
  <g id="graphics">
    <g>
      <path d="M1.54,296.93V279.3a22.5,22.5,0,0,1,1.57-9,14.73,14.73,0,0,1,4.31-5.8,16.91,16.91,0,0,1,6.08-3,26.91,26.91,0,0,1,7.18-1H22v9.71H18.9c-2.64,0-4.6.63-5.88,1.91s-1.91,3.28-1.91,6v18.73Z" transform="translate(-1.54 -2.42)"/>
      <path d="M50.39,285.72h6.83a14.86,14.86,0,0,1-5.74,8.75,17.37,17.37,0,0,1-10.66,3.14q-7.78,0-12.17-5.05t-4.37-14.08q0-8.75,4.24-13.67t12.16-5.06q8.2,0,12.72,4.92t4.37,14.08v1.5a2.35,2.35,0,0,1-.14,1H34c.09,2.83.77,4.92,2,6.29a6.45,6.45,0,0,0,5.33,2.19,7.69,7.69,0,0,0,4-1,1.79,1.79,0,0,0,.75-.48l.76-.75a2.86,2.86,0,0,1,1-1.09A4.05,4.05,0,0,1,50.39,285.72ZM34,275.06H47.93A9,9,0,0,0,46,269.59,6.6,6.6,0,0,0,41,267.68,6.66,6.66,0,0,0,36,269.59,7.84,7.84,0,0,0,34,275.06Z" transform="translate(-1.54 -2.42)"/>
      <path d="M84.61,295.43a16.89,16.89,0,0,1-6.08,1.84,53.66,53.66,0,0,1-5.67.34A14.3,14.3,0,0,1,64.24,295q-3.69-2.67-3.69-8.82,0-5.75,3.35-8.2a19.32,19.32,0,0,1,8.55-3.28,8.53,8.53,0,0,0,1.64-.2c.63-.14,1.36-.25,2.18-.35,4-.54,6-1.73,6-3.55a2.6,2.6,0,0,0-2.12-2.67,14.08,14.08,0,0,0-3.9-.61,9.8,9.8,0,0,0-3.41.55,3.66,3.66,0,0,0-2.19,2.05H61.51a10.52,10.52,0,0,1,3.83-7q3.69-3.13,10.52-3.14c5.11,0,8.93.87,11.49,2.6a8.77,8.77,0,0,1,4,7.65v12.44c0,3.65-.66,6.49-2,8.54A12.08,12.08,0,0,1,84.61,295.43Zm-2.19-16.82a25.65,25.65,0,0,1-5.33,1.78l-3.14.68a8,8,0,0,0-3.55,1.78,5.59,5.59,0,0,0-1,3,4.43,4.43,0,0,0,1.23,3.28,5.17,5.17,0,0,0,3.55,1.09,7.55,7.55,0,0,0,8.2-8.2Z" transform="translate(-1.54 -2.42)"/>
      <path d="M118.83,249.77h4.65a4.35,4.35,0,0,1,3.28,1.44,4.55,4.55,0,0,1,1.37,3.21v26.65q0,9.72-5.61,13.13a22.89,22.89,0,0,1-12.16,3.41,21.32,21.32,0,0,1-7-1.16,11.41,11.41,0,0,1-5.47-3.76q-4-5.06-4-13.8t4-13.81a13.32,13.32,0,0,1,16.54-4,13,13,0,0,1,4.37,4.23Zm-15.58,28.71q0,5.46,2,8.34a6.8,6.8,0,0,0,5.88,2.87,6.66,6.66,0,0,0,5.74-2.87q1.9-2.88,1.91-8.34a13.14,13.14,0,0,0-2-7.79A7.13,7.13,0,0,0,110.9,268a6.53,6.53,0,0,0-5.6,2.87Q103.25,273.56,103.25,278.48Z" transform="translate(-1.54 -2.42)"/>
      <path class="cls-1" d="M141.16,254.42v10.93a11.51,11.51,0,0,1,4.38-4.23,12.22,12.22,0,0,1,6-1.37,12.74,12.74,0,0,1,10.53,5.33q4.09,5.34,4.1,13.81t-4.1,13.8a11.43,11.43,0,0,1-5.54,3.76,21.58,21.58,0,0,1-6.9,1.16,22.93,22.93,0,0,1-12.17-3.41q-5.61-3.42-5.6-13.13v-31.3h4.65a4.66,4.66,0,0,1,4.64,4.65Zm15.59,24.06c0-3.28-.69-5.83-2.05-7.66a6.54,6.54,0,0,0-5.61-2.87,6.9,6.9,0,0,0-5.88,2.74,13.21,13.21,0,0,0-2.05,7.79c0,3.82.64,6.61,1.92,8.34a6.65,6.65,0,0,0,5.74,2.87,6.8,6.8,0,0,0,5.88-2.87C156.06,284.9,156.75,282.12,156.75,278.48Z" transform="translate(-1.54 -2.42)"/>
      <path class="cls-1" d="M174.43,293.65a13.46,13.46,0,0,1-4.1-6.63,30.5,30.5,0,0,1-1.23-8.68,27.59,27.59,0,0,1,1-7.38,15.41,15.41,0,0,1,3.21-6.15,14.18,14.18,0,0,1,9.16-4.85,21.15,21.15,0,0,1,10.12.88,14,14,0,0,1,7.65,7.11,22.7,22.7,0,0,1,2.33,10.53,26,26,0,0,1-1,7.52,19.5,19.5,0,0,1-2.46,5.33,13.7,13.7,0,0,1-8.34,5.6,18.65,18.65,0,0,1-9.09.21A16,16,0,0,1,174.43,293.65ZM181,269.59q-2.87,3.15-2.6,9.37c.18,4.14,1,7,2.33,8.68a6.07,6.07,0,0,0,2.87,1.84,6.54,6.54,0,0,0,4.17.14,7,7,0,0,0,3.76-3.08q1.64-2.46,1.77-7.93,0-4.92-1.57-7.38a7.11,7.11,0,0,0-3.62-3.14A6.61,6.61,0,0,0,184,268,7.21,7.21,0,0,0,181,269.59Z" transform="translate(-1.54 -2.42)"/>
      <path class="cls-1" d="M210.7,293.65a13.54,13.54,0,0,1-4.1-6.63,30.5,30.5,0,0,1-1.23-8.68,27.21,27.21,0,0,1,1-7.38,15.16,15.16,0,0,1,3.21-6.15,14.15,14.15,0,0,1,9.16-4.85,21.12,21.12,0,0,1,10.11.88,14,14,0,0,1,7.66,7.11,22.82,22.82,0,0,1,2.32,10.53,26,26,0,0,1-1,7.52,19.5,19.5,0,0,1-2.46,5.33,13.67,13.67,0,0,1-8.34,5.6,18.64,18.64,0,0,1-9.09.21A16,16,0,0,1,210.7,293.65Zm6.56-24.06q-2.87,3.15-2.6,9.37c.19,4.14,1,7,2.33,8.68a6.12,6.12,0,0,0,2.87,1.84,6.54,6.54,0,0,0,4.17.14,7,7,0,0,0,3.76-3.08q1.64-2.46,1.78-7.93,0-4.92-1.58-7.38a7.11,7.11,0,0,0-3.62-3.14,6.61,6.61,0,0,0-4.1-.07A7.21,7.21,0,0,0,217.26,269.59Z" transform="translate(-1.54 -2.42)"/>
      <path class="cls-1" d="M252,260.57V274l11.62-13.4h11.48l-13,13.94,13.12,22.42H263.79l-6.7-12.3q-2.05-3.69-3.55-3.15c-1,.37-1.51.92-1.51,1.65v13.8h-9.57v-47h4.92a4.47,4.47,0,0,1,3.28,1.37,4.33,4.33,0,0,1,1.37,3.14Z" transform="translate(-1.54 -2.42)"/>
    </g>
    <g>
      <path class="cls-2" d="M272.85,90c6.8-22.58-14.53-32.2-14.53-32.2L244.8,113.58C262.83,108.14,269.82,97.3,272.85,90Z" transform="translate(-1.54 -2.42)"/>
      <path class="cls-3" d="M215.36,21.15c-2.5,32.53-4.13,62.44-4.66,76.76,22.66-2.14,41.37-11.83,49.37-24.87a18.47,18.47,0,0,0,2.07-4C269.41,45.75,247.33,30.51,215.36,21.15Z" transform="translate(-1.54 -2.42)"/>
      <path class="cls-4" d="M193.4,81.66c-23.67,0-50.08-11.57-54.75-34.68-.63-3.09.38.75.38,133.87,0,12.66,15.58,24.29,35.76,24.29,18.84,0,34.34-10.3,36.32-21.79h.22l35.38-131C240.45,69.21,219,81.66,193.4,81.66Z" transform="translate(-1.54 -2.42)"/>
      <path class="cls-5" d="M201.25,98.36c-33.58,0-61-26.28-62.89-47.72-.17,1.1.67-6.09.67,146.91,0,12.66,17.91,24.29,41,24.29,21.52,0,39.23-10.31,41.49-21.79h.26l40.4-131C255,85.91,230.45,98.36,201.25,98.36Z" transform="translate(-1.54 -2.42)"/>
      <path class="cls-6" d="M191.59,2.71c30.56-.83,57,16.82,57,39.46,0,21.81-24.7,39.49-55.16,39.49-2.35,0-4.66-.12-6.94-.32Z" transform="translate(-1.54 -2.42)"/>
      <path class="cls-7" d="M272.85,90c-4.59,11-18.3,30.28-65.83,26.41-58.66-4.78-68.42-46.76-68.76-68.07,0,.74,0,161.86,0,163.11,0,12.13,20.4,23.27,45.56,23.27,23.49,0,42.82-9.87,45.3-20.88h.27L273.49,88.31Z" transform="translate(-1.54 -2.42)"/>
      <path class="cls-8" d="M4,89.77c-6.8-22.58,14.53-32.2,14.53-32.2L32,113.32C14,107.88,7,97,4,89.77Z" transform="translate(-1.54 -2.42)"/>
      <path class="cls-9" d="M61.45,20.89c2.5,32.53,4.13,62.45,4.66,76.76C43.45,95.51,24.74,85.82,16.74,72.78a18.47,18.47,0,0,1-2.07-4C7.4,45.49,29.48,30.25,61.45,20.89Z" transform="translate(-1.54 -2.42)"/>
      <path class="cls-10" d="M83.41,81.4c23.67,0,50.08-11.57,54.75-34.68.63-3.08-.38.75-.38,133.87,0,12.66-15.58,24.29-35.76,24.29-18.84,0-34.34-10.3-36.32-21.79h-.23L30.1,52.07C36.36,69,57.85,81.4,83.41,81.4Z" transform="translate(-1.54 -2.42)"/>
      <path class="cls-11" d="M75.56,98.1c33.58,0,61-26.28,62.89-47.72.17,1.1-.67-6.09-.67,146.91,0,12.66-17.91,24.29-41,24.29-21.52,0-39.23-10.31-41.49-21.79h-.25l-40.41-131C21.82,85.65,46.36,98.1,75.56,98.1Z" transform="translate(-1.54 -2.42)"/>
      <path class="cls-12" d="M85.22,2.45c-30.56-.83-57,16.82-57,39.46,0,21.81,24.69,39.49,55.16,39.49q3.53,0,6.94-.32Z" transform="translate(-1.54 -2.42)"/>
      <path class="cls-13" d="M4,89.76c4.59,11,18.3,30.28,65.83,26.41,58.66-4.78,68.42-46.76,68.76-68.07,0,.74,0,161.86,0,163.11,0,12.13-20.4,23.27-45.56,23.27-23.49,0-42.82-9.87-45.3-20.88h-.27L3.32,88.05Z" transform="translate(-1.54 -2.42)"/>
    </g>
  </g>
</svg>
