<svg id="Livello_1" data-name="Livello 1" xmlns="http://www.w3.org/2000/svg" xmlns:xlink="http://www.w3.org/1999/xlink" width="127.52mm" height="24.58mm" viewBox="0 0 361.47 69.69">
  <defs>
    <style>
      .cls-1 {
        fill: #010101;
      }

      .cls-2 {
        fill: #13689a;
      }

      .cls-3 {
        fill: url(#Sfumatura_senza_nome_10);
      }

      .cls-4 {
        fill: url(#Sfumatura_senza_nome_10-2);
      }

      .cls-5 {
        fill: url(#Sfumatura_senza_nome_11);
      }

      .cls-6 {
        fill: url(#Sfumatura_senza_nome_11-2);
      }

      .cls-7 {
        fill: url(#Sfumatura_senza_nome_10-3);
      }

      .cls-8 {
        fill: url(#Sfumatura_senza_nome_11-3);
      }

      .cls-9 {
        fill: url(#Sfumatura_senza_nome_10-4);
      }

      .cls-10 {
        fill: url(#Sfumatura_senza_nome_10-5);
      }

      .cls-11 {
        fill: #42bfe9;
      }

      .cls-12 {
        fill: url(#Sfumatura_senza_nome_11-4);
      }

      .cls-13 {
        fill: url(#Sfumatura_senza_nome_10-6);
      }

      .cls-14 {
        fill: url(#Sfumatura_senza_nome_11-5);
      }
    </style>
    <linearGradient id="Sfumatura_senza_nome_10" data-name="Sfumatura senza nome 10" x1="78.25" y1="143.65" x2="78.75" y2="124.72" gradientTransform="matrix(1, 0, 0, -1, -1.55, 158.74)" gradientUnits="userSpaceOnUse">
      <stop offset="0.09" stop-color="#9bd5e7"/>
      <stop offset="0.63" stop-color="#04a0ca"/>
      <stop offset="0.97" stop-color="#13689a"/>
    </linearGradient>
    <linearGradient id="Sfumatura_senza_nome_10-2" x1="73.66" y1="149.14" x2="67.23" y2="133.49" xlink:href="#Sfumatura_senza_nome_10"/>
    <linearGradient id="Sfumatura_senza_nome_11" data-name="Sfumatura senza nome 11" x1="29.73" y1="139.13" x2="66.61" y2="118.38" gradientTransform="matrix(1, 0, 0, -1, -1.55, 158.74)" gradientUnits="userSpaceOnUse">
      <stop offset="0.03" stop-color="#13689a"/>
      <stop offset="0.37" stop-color="#04a0ca"/>
      <stop offset="0.91" stop-color="#9bd5e7"/>
    </linearGradient>
    <linearGradient id="Sfumatura_senza_nome_11-2" x1="41.21" y1="122.96" x2="68.27" y2="115.18" xlink:href="#Sfumatura_senza_nome_11"/>
    <linearGradient id="Sfumatura_senza_nome_10-3" x1="76.07" y1="168.34" x2="55.06" y2="130.68" xlink:href="#Sfumatura_senza_nome_10"/>
    <linearGradient id="Sfumatura_senza_nome_11-3" x1="42.23" y1="117.09" x2="82.8" y2="117.09" xlink:href="#Sfumatura_senza_nome_11"/>
    <linearGradient id="Sfumatura_senza_nome_10-4" x1="252.56" y1="143.73" x2="253.05" y2="124.8" gradientTransform="translate(257.29 158.74) rotate(180)" xlink:href="#Sfumatura_senza_nome_10"/>
    <linearGradient id="Sfumatura_senza_nome_10-5" x1="247.97" y1="149.22" x2="241.55" y2="133.57" gradientTransform="translate(257.29 158.74) rotate(180)" xlink:href="#Sfumatura_senza_nome_10"/>
    <linearGradient id="Sfumatura_senza_nome_11-4" x1="39.85" y1="125.13" x2="14.65" y2="113.83" xlink:href="#Sfumatura_senza_nome_11"/>
    <linearGradient id="Sfumatura_senza_nome_10-6" x1="250.39" y1="168.42" x2="229.37" y2="130.75" gradientTransform="translate(257.29 158.74) rotate(180)" xlink:href="#Sfumatura_senza_nome_10"/>
    <linearGradient id="Sfumatura_senza_nome_11-5" x1="216.53" y1="117.16" x2="257.11" y2="117.16" gradientTransform="translate(257.29 158.74) rotate(180)" xlink:href="#Sfumatura_senza_nome_11"/>
  </defs>
  <title>logo_ext</title>
  <g id="graphics">
    <g>
      <path class="cls-1" d="M87.8,60V42.39a22.71,22.71,0,0,1,1.57-9,14.9,14.9,0,0,1,4.31-5.8,17,17,0,0,1,6.08-3,27.28,27.28,0,0,1,7.18-1h1.32V33.3h-3.1c-2.64,0-4.6.63-5.88,1.91s-1.91,3.28-1.91,6V59.94Z" transform="translate(0 0.08)"/>
      <path class="cls-1" d="M136.65,48.81h6.83a14.84,14.84,0,0,1-5.74,8.75,17.33,17.33,0,0,1-10.66,3.14q-7.77,0-12.17-5.05t-4.37-14.08q0-8.74,4.24-13.67t12.16-5.06q8.2,0,12.72,4.92T144,41.84v1.5a2.27,2.27,0,0,1-.14,1H120.26c.09,2.83.77,4.92,2,6.29a6.45,6.45,0,0,0,5.33,2.19,7.68,7.68,0,0,0,4-1,1.7,1.7,0,0,0,.75-.48l.76-.75a2.91,2.91,0,0,1,1-1.09A4.06,4.06,0,0,1,136.65,48.81ZM120.26,38.15h13.93a9,9,0,0,0-1.93-5.47,7.5,7.5,0,0,0-10,0A7.87,7.87,0,0,0,120.26,38.15Z" transform="translate(0 0.08)"/>
      <path class="cls-1" d="M170.87,58.52a16.89,16.89,0,0,1-6.08,1.84,51.2,51.2,0,0,1-5.67.34,14.28,14.28,0,0,1-8.62-2.61q-3.69-2.67-3.69-8.82,0-5.75,3.35-8.2a19.47,19.47,0,0,1,8.55-3.28,8.26,8.26,0,0,0,1.64-.2c.63-.14,1.36-.25,2.18-.35,4-.54,6-1.73,6-3.55A2.6,2.6,0,0,0,166.41,31a14.3,14.3,0,0,0-3.9-.61,9.91,9.91,0,0,0-3.41.55,3.67,3.67,0,0,0-2.19,2h-9.14a10.53,10.53,0,0,1,3.83-7q3.69-3.12,10.52-3.14c5.11,0,8.93.87,11.49,2.6a8.79,8.79,0,0,1,4,7.65V45.56c0,3.65-.66,6.49-2,8.54A12.07,12.07,0,0,1,170.87,58.52ZM168.68,41.7a25.11,25.11,0,0,1-5.33,1.78l-3.14.68a8.12,8.12,0,0,0-3.55,1.78,5.69,5.69,0,0,0-1,3,4.43,4.43,0,0,0,1.23,3.28,5.17,5.17,0,0,0,3.55,1.09,7.55,7.55,0,0,0,8.2-6.84,7.72,7.72,0,0,0,0-1.36Z" transform="translate(0 0.08)"/>
      <path class="cls-1" d="M205.09,12.86h4.65A4.4,4.4,0,0,1,213,14.3a4.59,4.59,0,0,1,1.37,3.21V44.16q0,9.72-5.61,13.13a22.83,22.83,0,0,1-12.16,3.41,21.11,21.11,0,0,1-7-1.16,11.35,11.35,0,0,1-5.47-3.76q-4-5.06-4-13.8t4-13.81a13.32,13.32,0,0,1,16.54-4,13.1,13.1,0,0,1,4.37,4.23ZM189.51,41.57q0,5.46,2,8.34a6.8,6.8,0,0,0,5.88,2.87,6.65,6.65,0,0,0,5.74-2.87Q205,47,205,41.57a13.22,13.22,0,0,0-2-7.79,7.16,7.16,0,0,0-5.88-2.69,6.54,6.54,0,0,0-5.6,2.87C190.19,35.76,189.51,38.29,189.51,41.57Z" transform="translate(0 0.08)"/>
      <path class="cls-2" d="M227.42,17.51V28.44a11.56,11.56,0,0,1,4.38-4.23,12.25,12.25,0,0,1,6-1.37,12.74,12.74,0,0,1,10.52,5.33q4.1,5.34,4.1,13.81t-4.1,13.8a11.33,11.33,0,0,1-5.53,3.76,21.67,21.67,0,0,1-6.9,1.16,22.81,22.81,0,0,1-12.17-3.41q-5.61-3.42-5.6-13.13V12.86h4.65a4.67,4.67,0,0,1,4.64,4.65ZM243,41.57c0-3.28-.69-5.83-2-7.66A6.58,6.58,0,0,0,235.35,31a6.91,6.91,0,0,0-5.88,2.74,13.17,13.17,0,0,0-2.05,7.79c0,3.82.64,6.61,1.92,8.34a6.64,6.64,0,0,0,5.74,2.87A6.81,6.81,0,0,0,241,49.91C242.32,48,243,45.21,243,41.57Z" transform="translate(0 0.08)"/>
      <path class="cls-2" d="M260.68,56.74a13.47,13.47,0,0,1-4.1-6.63,30.71,30.71,0,0,1-1.23-8.68,27.94,27.94,0,0,1,1-7.38,15.52,15.52,0,0,1,3.21-6.15,14.27,14.27,0,0,1,9.16-4.85,21.2,21.2,0,0,1,10.12.88A14,14,0,0,1,286.49,31a22.76,22.76,0,0,1,2.33,10.53,25.79,25.79,0,0,1-1,7.52,19.13,19.13,0,0,1-2.46,5.33A13.66,13.66,0,0,1,277,60a18.65,18.65,0,0,1-9.09.21A16,16,0,0,1,260.68,56.74Zm6.57-24.06q-2.87,3.15-2.6,9.37c.18,4.14,1,7,2.33,8.68a6,6,0,0,0,2.87,1.84,6.55,6.55,0,0,0,4.17.14,6.93,6.93,0,0,0,3.76-3.08q1.65-2.46,1.77-7.93,0-4.92-1.57-7.38a7.09,7.09,0,0,0-3.62-3.14,6.71,6.71,0,0,0-4.11-.09A7.32,7.32,0,0,0,267.25,32.68Z" transform="translate(0 0.08)"/>
      <path class="cls-2" d="M297,56.74a13.58,13.58,0,0,1-4.1-6.63,30.71,30.71,0,0,1-1.23-8.68,27.53,27.53,0,0,1,1-7.38,15.21,15.21,0,0,1,3.21-6.15A14.17,14.17,0,0,1,305,23.05a21.17,21.17,0,0,1,10.11.88A14,14,0,0,1,322.76,31a22.88,22.88,0,0,1,2.32,10.53,25.79,25.79,0,0,1-1,7.52,19.71,19.71,0,0,1-2.46,5.33,13.66,13.66,0,0,1-8.34,5.6,18.65,18.65,0,0,1-9.09.21A16,16,0,0,1,297,56.74Zm6.56-24.06q-2.86,3.15-2.6,9.37c.19,4.14,1,7,2.33,8.68a6.06,6.06,0,0,0,2.87,1.84,6.54,6.54,0,0,0,4.17.14A6.93,6.93,0,0,0,314,49.63c1.09-1.64,1.69-4.28,1.78-7.93q0-4.92-1.58-7.38a7.17,7.17,0,0,0-3.62-3.14,6.68,6.68,0,0,0-4.1-.07A7.38,7.38,0,0,0,303.51,32.68Z" transform="translate(0 0.08)"/>
      <path class="cls-2" d="M338.25,23.66V37.09l11.62-13.4h11.48l-13,13.94,13.12,22.42H350l-6.7-12.3q-2.05-3.69-3.55-3.15c-1,.37-1.51.92-1.51,1.65v13.8h-9.57v-47h4.92a4.49,4.49,0,0,1,3.28,1.37,4.35,4.35,0,0,1,1.37,3.14Z" transform="translate(0 0.08)"/>
    </g>
    <g>
      <path class="cls-3" d="M81.05,26.19c2-6.77-4.36-9.66-4.36-9.66l-4,16.74C78.05,31.64,80.14,28.38,81.05,26.19Z" transform="translate(0 0.08)"/>
      <path class="cls-4" d="M63.81,5.54c-.75,9.76-1.24,18.73-1.4,23,6.8-.65,12.41-3.55,14.81-7.46a6.2,6.2,0,0,0,.62-1.2C80,12.92,73.4,8.35,63.81,5.54Z" transform="translate(0 0.08)"/>
      <path class="cls-5" d="M57.22,23.69c-7.1,0-15-3.47-16.43-10.4-.19-.93.12.22.12,40.16,0,3.79,4.67,7.28,10.73,7.28,5.65,0,10.3-3.09,10.89-6.53h.07L73.21,14.9C71.33,20,64.9,23.69,57.22,23.69Z" transform="translate(0 0.08)"/>
      <path class="cls-6" d="M59.57,28.7c-10.07,0-18.3-7.88-18.86-14.31-.05.33.2-1.83.2,44.07,0,3.79,5.37,7.28,12.3,7.28,6.45,0,11.77-3.09,12.44-6.53h.08l12.12-39.3C75.7,25,68.33,28.7,59.57,28.7Z" transform="translate(0 0.08)"/>
      <path class="cls-7" d="M56.67,0c9.17-.25,17.1,5,17.1,11.84,0,6.54-7.41,11.84-16.54,11.84-.71,0-1.4,0-2.08-.09Z" transform="translate(0 0.08)"/>
      <path class="cls-8" d="M81.05,26.19c-1.38,3.3-5.49,9.09-19.75,7.93-17.59-1.44-20.52-14-20.62-20.42V62.63c0,3.64,6.12,7,13.66,7,7,0,12.85-3,13.59-6.27H68L81.24,25.69Z" transform="translate(0 0.08)"/>
      <path class="cls-9" d="M.4,26.12c-2-6.77,4.36-9.65,4.36-9.65l4,16.72C3.4,31.56,1.3,28.29.4,26.12Z" transform="translate(0 0.08)"/>
      <path class="cls-10" d="M17.64,5.46c.75,9.76,1.23,18.74,1.39,23C12.24,27.85,6.62,24.94,4.22,21a5.93,5.93,0,0,1-.62-1.2C1.42,12.84,8,8.27,17.64,5.46Z" transform="translate(0 0.08)"/>
      <path class="cls-11" d="M24.22,23.61c7.1,0,15-3.47,16.43-10.4.19-.92-.12.23-.12,40.16,0,3.8-4.67,7.29-10.72,7.29-5.66,0-10.31-3.09-10.9-6.54h-.07L8.23,14.82C10.11,19.89,16.56,23.61,24.22,23.61Z" transform="translate(0 0.08)"/>
      <path class="cls-12" d="M21.87,28.62c10.07,0,18.3-7.88,18.86-14.31.05.33-.2-1.83-.2,44.07,0,3.8-5.37,7.29-12.3,7.29-6.45,0-11.76-3.1-12.44-6.54h-.08L3.59,19.83C5.75,24.89,13.11,28.62,21.87,28.62Z" transform="translate(0 0.08)"/>
      <path class="cls-13" d="M24.77-.07C15.6-.32,7.67,5,7.67,11.77c0,6.54,7.4,11.84,16.54,11.84.71,0,1.4,0,2.09-.09Z" transform="translate(0 0.08)"/>
      <path class="cls-14" d="M.4,26.12c1.38,3.3,5.49,9.09,19.75,7.92,17.6-1.43,20.52-14,20.63-20.42V62.55c0,3.64-6.12,7-13.67,7-7,0-12.85-3-13.59-6.27h-.08L.2,25.61Z" transform="translate(0 0.08)"/>
    </g>
  </g>
</svg>
