<svg xmlns="http://www.w3.org/2000/svg" width="342.61" height="362.93" viewBox="0 0 342.61 362.93">
  <defs>
    <style>
      .cls-1, .cls-10, .cls-14, .cls-15, .cls-16, .cls-19, .cls-21, .cls-4, .cls-5, .cls-7 {
        fill: none;
        stroke-linecap: round;
        stroke-linejoin: round;
      }

      .cls-1, .cls-15 {
        stroke: #499280;
      }

      .cls-1 {
        stroke-width: 0.67px;
      }

      .cls-2 {
        fill: #27725d;
      }

      .cls-3 {
        fill: #499280;
      }

      .cls-19, .cls-4 {
        stroke: #27725d;
      }

      .cls-5 {
        stroke: #125943;
      }

      .cls-6 {
        fill: #f3f3f3;
      }

      .cls-7 {
        stroke: #ccceba;
      }

      .cls-10, .cls-15, .cls-19, .cls-7 {
        stroke-width: 0.88px;
      }

      .cls-8 {
        fill: #e3e5d6;
      }

      .cls-9 {
        fill: #0064ac;
      }

      .cls-10 {
        stroke: #003768;
      }

      .cls-11, .cls-13 {
        fill: #003768;
      }

      .cls-11 {
        opacity: 0.4;
      }

      .cls-12 {
        fill: #dc849e;
      }

      .cls-14 {
        stroke: #0064ac;
        stroke-width: 0.84px;
      }

      .cls-16 {
        stroke: #135940;
      }

      .cls-17 {
        fill: #55aa94;
      }

      .cls-18 {
        fill: #74baa6;
      }

      .cls-20 {
        fill: #e0638a;
      }

      .cls-21 {
        stroke: #c93a6e;
        stroke-width: 0.75px;
      }
    </style>
  </defs>
  <title>response</title>
  <g id="OBJECTS">
    <g>
      <g>
        <path class="cls-1" d="M77.47,322.61C65.46,311.66,57,297.21,51.29,282s-8.9-31.27-11.61-47.3Q34.91,206.46,31.9,178" transform="translate(0.45 -5.32)"/>
        <path class="cls-2" d="M31.92,178.59A64.66,64.66,0,0,1,22.6,144a16.46,16.46,0,0,1,1.27-6.75,3.44,3.44,0,0,1,4.86-1.49,3.37,3.37,0,0,1,1.12,1.21,14.65,14.65,0,0,1,1.44,5.27A158.18,158.18,0,0,1,31.92,178.59Z" transform="translate(0.45 -5.32)"/>
        <path class="cls-3" d="M32.55,184.49a55.08,55.08,0,0,1,15.1-26.59,13.93,13.93,0,0,1,4.81-3.33,2.84,2.84,0,0,1,3.8,3.41A12.43,12.43,0,0,1,54,162,134.35,134.35,0,0,1,32.55,184.49Z" transform="translate(0.45 -5.32)"/>
        <path class="cls-3" d="M32.56,184.05A55,55,0,0,1,6,169a13.93,13.93,0,0,1-3.33-4.81,2.93,2.93,0,0,1,2-3.84,2.83,2.83,0,0,1,1.41,0,12.25,12.25,0,0,1,4.05,2.29A134.29,134.29,0,0,1,32.56,184.05Z" transform="translate(0.45 -5.32)"/>
        <path class="cls-3" d="M53.8,288.53c2.06-10.35,7.68-20.38,16-28.57a18,18,0,0,1,5.52-4c1.89-.79,4.19-.13,4.78,1.48a2.42,2.42,0,0,1,.07,1.42,12.55,12.55,0,0,1-2.42,4.35A156.34,156.34,0,0,1,53.8,288.53Z" transform="translate(0.45 -5.32)"/>
        <path class="cls-2" d="M54,288.43A68.94,68.94,0,0,1,20.78,277a13.62,13.62,0,0,1-4.41-4.36,3,3,0,0,1,2.11-4.09,4.12,4.12,0,0,1,1.7-.15,15.4,15.4,0,0,1,5.06,1.73A147.55,147.55,0,0,1,54,288.43Z" transform="translate(0.45 -5.32)"/>
        <path class="cls-3" d="M65.65,309c.54-10.54,4.65-21.28,11.7-30.59a18.2,18.2,0,0,1,4.89-4.73c1.76-1.05,4.14-.73,5,.78a2.34,2.34,0,0,1,.27,1.39,12.7,12.7,0,0,1-1.76,4.65A156.44,156.44,0,0,1,65.65,309Z" transform="translate(0.45 -5.32)"/>
        <path class="cls-3" d="M65.9,309.24a69,69,0,0,1-34.56-6.55,13.75,13.75,0,0,1-5-3.67,3,3,0,0,1,1.49-4.36,4.18,4.18,0,0,1,1.66-.4,15.64,15.64,0,0,1,5.26,1A147.74,147.74,0,0,1,65.9,309.24Z" transform="translate(0.45 -5.32)"/>
        <path class="cls-3" d="M34.9,203.21a55.07,55.07,0,0,1,20.13-23,14,14,0,0,1,5.39-2.3,2.92,2.92,0,0,1,3.35,2.74,2.78,2.78,0,0,1-.32,1.37,12.6,12.6,0,0,1-3.05,3.51A134.2,134.2,0,0,1,34.9,203.21Z" transform="translate(0.45 -5.32)"/>
        <path class="cls-2" d="M35,202.86A55.08,55.08,0,0,1,6.12,192.81,14,14,0,0,1,2,188.68a2.94,2.94,0,0,1,1.29-4.14,2.85,2.85,0,0,1,1.39-.21,12.4,12.4,0,0,1,4.4,1.52A134.51,134.51,0,0,1,35,202.86Z" transform="translate(0.45 -5.32)"/>
        <path class="cls-2" d="M37.74,223.45a63.18,63.18,0,0,1,23.08-26.38A16.07,16.07,0,0,1,67,194.43a3.36,3.36,0,0,1,3.84,3.14,3.29,3.29,0,0,1-.37,1.58,14.42,14.42,0,0,1-3.5,4A154.43,154.43,0,0,1,37.74,223.45Z" transform="translate(0.45 -5.32)"/>
        <path class="cls-3" d="M37.86,223a63.18,63.18,0,0,1-33.1-11.52A16.05,16.05,0,0,1,0,206.78,3.36,3.36,0,0,1,1.47,202a3.22,3.22,0,0,1,1.6-.24,14.38,14.38,0,0,1,5,1.73A154.47,154.47,0,0,1,37.86,223Z" transform="translate(0.45 -5.32)"/>
        <path class="cls-3" d="M41.11,243a65.55,65.55,0,0,1,24.68-26.5,18,18,0,0,1,6.59-2.66,3.47,3.47,0,0,1,4.07,3.12,3.15,3.15,0,0,1-.4,1.58,14.89,14.89,0,0,1-3.74,4A166.09,166.09,0,0,1,41.11,243Z" transform="translate(0.45 -5.32)"/>
        <path class="cls-2" d="M41.23,242.55A69.51,69.51,0,0,1,6.07,231.19a16.42,16.42,0,0,1-5-4.72,3.29,3.29,0,0,1,1.59-4.75,3.76,3.76,0,0,1,1.7-.25,15.52,15.52,0,0,1,5.35,1.71A163.13,163.13,0,0,1,41.23,242.55Z" transform="translate(0.45 -5.32)"/>
        <path class="cls-3" d="M45.75,265.51A65.48,65.48,0,0,1,70.43,239,17.57,17.57,0,0,1,77,236.35a3.48,3.48,0,0,1,4.08,3.12,3.11,3.11,0,0,1-.4,1.57,14.67,14.67,0,0,1-3.75,4A166,166,0,0,1,45.75,265.51Z" transform="translate(0.45 -5.32)"/>
        <path class="cls-3" d="M45.87,265.1a69.37,69.37,0,0,1-35.16-11.35,16.31,16.31,0,0,1-5-4.72,3.29,3.29,0,0,1,1.59-4.75A3.63,3.63,0,0,1,9,244a15.66,15.66,0,0,1,5.35,1.71A163.09,163.09,0,0,1,45.87,265.1Z" transform="translate(0.45 -5.32)"/>
      </g>
      <g>
        <g>
          <path class="cls-3" d="M25.47,306c21.61,7.3,42.89,27.1,48.91,49.1-7.16.49-14.92-2.74-20.73-6.94C40.87,338.88,29.55,321.19,25.47,306Z" transform="translate(0.45 -5.32)"/>
          <path class="cls-4" d="M25.77,306.2l18.81,21.17" transform="translate(0.45 -5.32)"/>
        </g>
        <g>
          <path class="cls-2" d="M11.81,324.56c22.81-.45,49.53,11,62.64,29.64-6.57,2.89-15,2.47-21.86.49C37.45,350.32,20.8,337.51,11.81,324.56Z" transform="translate(0.45 -5.32)"/>
          <path class="cls-5" d="M12.23,324.57c17.81,12,38.62,21.42,59.09,27.9" transform="translate(0.45 -5.32)"/>
        </g>
      </g>
    </g>
    <g>
      <g>
        <path class="cls-6" d="M111.21,157.43,229,83.15l35.87,26.79c-18.48,6.24-38.52,13.2-57,19.44-7.7,2.6-15.39,5.2-22.93,8.22-6.86,2.76-13.58,5.86-20.5,8.47C147.3,152.51,129.48,157.43,111.21,157.43Z" transform="translate(0.45 -5.32)"/>
        <path class="cls-7" d="M125,153.86q57.17-31.38,113.77-63.81" transform="translate(0.45 -5.32)"/>
        <path class="cls-7" d="M126,153.32s73.2-31.54,124.5-53.81" transform="translate(0.45 -5.32)"/>
      </g>
      <g>
        <path class="cls-8" d="M100.56,157.92q17.76-26.1,37-51.08V61.77l-.38-.38A1073.43,1073.43,0,0,0,86,162.25" transform="translate(0.45 -5.32)"/>
        <path class="cls-6" d="M137.33,61.08c-5.4-3-18.79-6.16-18.79-6.16-14.47,30.32-28.61,61.7-42,92.51,2.61.88,11.72,4.88,13.9,5.28C91,151.82,122.29,91,137.33,61.08Z" transform="translate(0.45 -5.32)"/>
        <path class="cls-7" d="M83.33,147.09q20.85-45.21,44-89.29" transform="translate(0.45 -5.32)"/>
        <path class="cls-7" d="M85.74,149.32Q98,126.58,110.32,103.83" transform="translate(0.45 -5.32)"/>
        <path class="cls-7" d="M116.24,93.34c5.2-8.69,13.58-24.3,18.15-33.33" transform="translate(0.45 -5.32)"/>
      </g>
      <g>
        <path class="cls-8" d="M100.37,154.3c23.56-31.8,50.86-64.58,75.63-95.44,0,17.36.14,40.3.11,57.66-21.39,13.11-62.19,39.68-62.19,39.68" transform="translate(0.45 -5.32)"/>
        <polygon class="cls-6" points="176.46 53.54 172.06 52.57 95.29 148.12 99.87 150.41 176.46 53.54"/>
        <path class="cls-7" d="M98.31,152.83s74.15-93.17,74.76-93.92" transform="translate(0.45 -5.32)"/>
        <path class="cls-7" d="M114.26,148.65q28.54-31.11,57.11-62.21" transform="translate(0.45 -5.32)"/>
        <line class="cls-7" x1="143.33" y1="123.13" x2="166.44" y2="99.15"/>
      </g>
      <g>
        <path class="cls-9" d="M132.9,153l133.5-47.67a1.94,1.94,0,0,1,2.54,1.83V313.85a3.85,3.85,0,0,1-2.5,3.6L133.52,367.2l-4.76-3" transform="translate(0.45 -5.32)"/>
        <line class="cls-10" x1="138.65" y1="152.08" x2="265.44" y2="106.02"/>
        <polyline class="cls-10" points="265.44 106.02 264.71 307.61 138.65 355.58 138.65 152.08"/>
        <polygon class="cls-11" points="151.22 168.32 254.47 133.22 254.47 164.52 151.22 200.49 151.22 168.32"/>
        <polygon class="cls-11" points="151.22 208.1 254.47 173 254.47 179.43 151.22 215.41 151.22 208.1"/>
        <path class="cls-10" d="M255.48,115.32c1,4.79,4.35,8.12,9.25,8.25" transform="translate(0.45 -5.32)"/>
        <path class="cls-10" d="M139,170.36a12.68,12.68,0,0,0,8.49-16.07" transform="translate(0.45 -5.32)"/>
        <path class="cls-10" d="M138.71,345.29a10.14,10.14,0,0,1,12.44,10.37" transform="translate(0.45 -5.32)"/>
        <path class="cls-10" d="M253.81,316.92c-.84-6.71,1.58-15,10.42-18.25" transform="translate(0.45 -5.32)"/>
      </g>
      <path class="cls-12" d="M157,305.42s.68-146.25-1-157.25c-1-6.72-5.82-11.44-9.77-12.76a.64.64,0,0,1-.12-1.15l6.88-4.2a.67.67,0,0,1,.6,0c12.79,5.35,11.41,23.65,11.41,23.65l-.25,149-4.17-4Z" transform="translate(0.45 -5.32)"/>
      <g>
        <path class="cls-13" d="M72.47,143.58l42-90.39a1.34,1.34,0,0,1,1.61-.72l1.83.57a1.36,1.36,0,0,1,.83,1.85L76.52,147.43Z" transform="translate(0.45 -5.32)"/>
        <g>
          <path class="cls-13" d="M133.54,367.32l0-214.55a92,92,0,0,1-31.85,1.53c-10.92-1.41-21.75-4.87-29.24-10.72V347.32c0,13.65,17.17,18.92,26.53,19.8C110.44,368.19,123.07,368.92,133.54,367.32Z" transform="translate(0.45 -5.32)"/>
          <ellipse class="cls-9" cx="103.11" cy="257.38" rx="17.11" ry="55.28"/>
          <path class="cls-14" d="M73.66,163.11a118.9,118.9,0,0,0,63.53,8.48" transform="translate(0.45 -5.32)"/>
          <path class="cls-14" d="M72.75,175.36a118.9,118.9,0,0,0,63.53,8.48" transform="translate(0.45 -5.32)"/>
          <path class="cls-14" d="M73.66,329.83a118.89,118.89,0,0,0,63.53,8.47" transform="translate(0.45 -5.32)"/>
          <path class="cls-14" d="M72.75,342.08a118.89,118.89,0,0,0,63.53,8.47" transform="translate(0.45 -5.32)"/>
        </g>
      </g>
    </g>
    <g>
      <g>
        <g>
          <path class="cls-3" d="M306.23,256.17c-19.61,11.66-36.28,35.46-37.56,58.24,7.11-1,14-5.8,18.82-11.13C298.05,291.58,305.42,271.91,306.23,256.17Z" transform="translate(0.45 -5.32)"/>
          <path class="cls-4" d="M305.77,256.88q-7.38,14.4-16.11,28.06" transform="translate(0.45 -5.32)"/>
        </g>
        <g>
          <path class="cls-2" d="M323.48,271.5c-22.4,4.33-46.14,21.09-55.06,42.08,7,1.45,15.15-.71,21.48-4.09C303.8,302.05,317.39,286,323.48,271.5Z" transform="translate(0.45 -5.32)"/>
          <path class="cls-5" d="M323,271.77q-17.47,13.58-34.31,27.93" transform="translate(0.45 -5.32)"/>
        </g>
        <g>
          <path class="cls-3" d="M322.39,302.24c-17.69-4.6-40.65-.68-54.35,11.43,4.59,3.48,11.2,4.72,16.95,4.45C297.61,317.54,313,310.65,322.39,302.24Z" transform="translate(0.45 -5.32)"/>
          <path class="cls-4" d="M269.72,313.38A251.93,251.93,0,0,0,320.89,302" transform="translate(0.45 -5.32)"/>
        </g>
      </g>
      <g>
        <path class="cls-15" d="M269.48,296.42C280.36,274,283.8,250.84,286,224c2.82-34.79,2.66-73.33,1.33-112" transform="translate(0.45 -5.32)"/>
        <path class="cls-15" d="M288.19,149.37a141.59,141.59,0,0,0,22.31-32.69" transform="translate(0.45 -5.32)"/>
        <path class="cls-15" d="M287.43,203.13q16-16.27,30.93-33.56" transform="translate(0.45 -5.32)"/>
        <path class="cls-15" d="M305.31,184.5c9-1.74,19.23-3.67,28.25-5.42" transform="translate(0.45 -5.32)"/>
        <path class="cls-15" d="M258.45,136.68a47.93,47.93,0,0,0,30,28.11" transform="translate(0.45 -5.32)"/>
        <path class="cls-15" d="M258,190.64c7,10.41,17.45,19.82,28.21,26.28" transform="translate(0.45 -5.32)"/>
        <path class="cls-15" d="M282.12,256.84c12.55-10.8,32.81-26.87,45.36-37.67" transform="translate(0.45 -5.32)"/>
        <line class="cls-15" x1="311.18" y1="200.36" x2="310.57" y2="227.84"/>
        <path class="cls-15" d="M272,216.71l10.51-2.44" transform="translate(0.45 -5.32)"/>
        <path class="cls-15" d="M279.63,202.34s2.87,11.93,2.77,12.18" transform="translate(0.45 -5.32)"/>
        <path class="cls-15" d="M254.57,242.12a162.84,162.84,0,0,0,23,32.22" transform="translate(0.45 -5.32)"/>
        <line class="cls-15" x1="259.68" y1="265.18" x2="273.43" y2="264.02"/>
        <path class="cls-15" d="M297.48,244.63q16,.9,32,3.06" transform="translate(0.45 -5.32)"/>
        <g>
          <ellipse class="cls-2" cx="313.24" cy="111" rx="9" ry="9.67"/>
          <path class="cls-16" d="M307.39,123l10.68-13.5" transform="translate(0.45 -5.32)"/>
        </g>
        <g>
          <ellipse class="cls-3" cx="287.36" cy="105.27" rx="9" ry="9.67"/>
          <line class="cls-4" x1="287.06" y1="96.02" x2="288.01" y2="114.6"/>
        </g>
        <g>
          <ellipse class="cls-3" cx="260.36" cy="133.27" rx="9" ry="9.67"/>
          <path class="cls-4" d="M257.73,129.92q1.69,7.26,3.4,14.52" transform="translate(0.45 -5.32)"/>
        </g>
        <g>
          <ellipse class="cls-3" cx="260.36" cy="148.77" rx="9" ry="9.67"/>
          <path class="cls-4" d="M252,158.34a76.92,76.92,0,0,0,10.46-3.9" transform="translate(0.45 -5.32)"/>
        </g>
        <g>
          <ellipse class="cls-2" cx="270.11" cy="143.02" rx="9" ry="9.67"/>
          <path class="cls-16" d="M273.7,156.47q-4.21-8.15-7.63-16.67" transform="translate(0.45 -5.32)"/>
        </g>
        <g>
          <path class="cls-17" d="M317.37,206.26a6.75,6.75,0,1,1-6.73-7.23A7,7,0,0,1,317.37,206.26Z" transform="translate(0.45 -5.32)"/>
          <path class="cls-4" d="M310.65,213.17l.21-13.83" transform="translate(0.45 -5.32)"/>
        </g>
        <g>
          <ellipse class="cls-3" cx="321.49" cy="156.77" rx="11.13" ry="11.95"/>
          <path class="cls-4" d="M316,172q6.28-8.42,12.9-16.58" transform="translate(0.45 -5.32)"/>
        </g>
        <g>
          <ellipse class="cls-2" cx="331.49" cy="169.27" rx="11.13" ry="11.95"/>
          <path class="cls-4" d="M322.78,180.79q8.79-5.78,17.28-12" transform="translate(0.45 -5.32)"/>
          <path class="cls-16" d="M322.63,181l18.68-8" transform="translate(0.45 -5.32)"/>
        </g>
        <g>
          <ellipse class="cls-17" cx="260.03" cy="184.27" rx="9" ry="9.67"/>
          <path class="cls-4" d="M256.12,181.29a148.51,148.51,0,0,0,6.67,16.47" transform="translate(0.45 -5.32)"/>
        </g>
        <g>
          <path class="cls-17" d="M283.7,195.26A6.75,6.75,0,1,1,277,188,7,7,0,0,1,283.7,195.26Z" transform="translate(0.45 -5.32)"/>
          <path class="cls-4" d="M275.18,188.94l4.05,12.23" transform="translate(0.45 -5.32)"/>
        </g>
        <g>
          <ellipse class="cls-17" cx="264.88" cy="212.02" rx="9.07" ry="8.44"/>
          <path class="cls-4" d="M256.22,218.8a76.64,76.64,0,0,0,16.23-2.25" transform="translate(0.45 -5.32)"/>
        </g>
        <g>
          <ellipse class="cls-3" cx="331.11" cy="212.02" rx="9" ry="9.67"/>
          <path class="cls-4" d="M324,222.2q6.66-5.2,13.16-10.61" transform="translate(0.45 -5.32)"/>
        </g>
        <g>
          <ellipse class="cls-17" cx="253.49" cy="234.27" rx="11.13" ry="11.95"/>
          <path class="cls-4" d="M247.89,229.6a149.94,149.94,0,0,0,10.81,19.84" transform="translate(0.45 -5.32)"/>
        </g>
        <g>
          <ellipse class="cls-17" cx="271.19" cy="245.02" rx="6.73" ry="7.23"/>
          <path class="cls-4" d="M269.9,257.21c1.08-4.56,2-9.17,2.64-13.82" transform="translate(0.45 -5.32)"/>
        </g>
        <g>
          <ellipse class="cls-18" cx="251.09" cy="264.27" rx="8.73" ry="9.38"/>
          <path class="cls-4" d="M242.23,271.18l17-.38" transform="translate(0.45 -5.32)"/>
        </g>
        <path class="cls-15" d="M269.59,257.4a85.4,85.4,0,0,0,3,11.32" transform="translate(0.45 -5.32)"/>
        <g>
          <ellipse class="cls-17" cx="329.23" cy="246.34" rx="6.73" ry="7.23" transform="translate(68.77 558.83) rotate(-87.42)"/>
          <path class="cls-4" d="M322,246.33a101.87,101.87,0,0,0,14.51.29" transform="translate(0.45 -5.32)"/>
        </g>
      </g>
    </g>
    <g>
      <g>
        <path class="cls-15" d="M132.14,142.88c0-13.12,5.43-28.69,8.76-41.39a87.88,87.88,0,0,0,1.8-35.84c-2.16-13.69-7.57-27.07-6.61-40.89" transform="translate(0.45 -5.32)"/>
        <path class="cls-3" d="M133.38,130a8.71,8.71,0,0,1-4.25-1.47,33.63,33.63,0,0,1-16-23.61c4-.44,7.94,1.59,10.63,4.54s4.38,6.65,6,10.28S131.77,126.48,133.38,130Z" transform="translate(0.45 -5.32)"/>
        <path class="cls-2" d="M157.87,108.15a36.54,36.54,0,0,0-24.16,21.13,13.7,13.7,0,0,0,7.55-1.36C148.77,124.48,155.39,116,157.87,108.15Z" transform="translate(0.45 -5.32)"/>
        <path class="cls-2" d="M137.24,113.32a13.39,13.39,0,0,1-4.12-3.71,47.55,47.55,0,0,1-10.38-27.5c4.43,1.64,7.49,5.41,9.55,9.66C136,99.44,136.64,104.81,137.24,113.32Z" transform="translate(0.45 -5.32)"/>
        <path class="cls-3" d="M161.25,92.68l-6,2.89a44.15,44.15,0,0,0-6.95,3.89c-4.62,3.37-7.74,8.37-10.75,13.24C147.49,110.59,157.23,102,161.25,92.68Z" transform="translate(0.45 -5.32)"/>
        <path class="cls-3" d="M142.89,92.61l-8-9.77a67.62,67.62,0,0,1-6.15-8.34,34.22,34.22,0,0,1-4.22-22.83,27.74,27.74,0,0,1,11.69,12.52c1.93,4,2.84,8.46,3.74,12.83C141,82.32,141.8,87.31,142.89,92.61Z" transform="translate(0.45 -5.32)"/>
        <path class="cls-2" d="M169.25,55.78A27.67,27.67,0,0,0,152.8,66.54c-3.07,4.26-4.85,9.29-6.58,14.25L143,90.06c6.29-3.37,12.22-6.49,17.15-11.64S168.77,62.89,169.25,55.78Z" transform="translate(0.45 -5.32)"/>
        <path class="cls-3" d="M161.68,37.51c-5.37,2.75-10.9,5.78-14.27,10.78-3,4.49-3.95,10-4.79,15.39A70.1,70.1,0,0,0,161.68,37.51Z" transform="translate(0.45 -5.32)"/>
        <path class="cls-2" d="M150.27,17.84c-3.89,2-7.89,4.18-10.33,7.8-2.19,3.25-2.85,7.26-3.46,11.13C143.43,33.55,148.83,27.83,150.27,17.84Z" transform="translate(0.45 -5.32)"/>
        <path class="cls-2" d="M140.18,55.3a24.15,24.15,0,0,1-18.64-21.67,19.08,19.08,0,0,1,6.09,4.68A87.7,87.7,0,0,1,140.18,55.3Z" transform="translate(0.45 -5.32)"/>
        <path class="cls-3" d="M137.52,5.32a24.09,24.09,0,0,0-4.44,20c.81,3.51,2.4,6.79,3.2,10.29a36.08,36.08,0,0,0,3.35-15.73C139.49,14.45,138.47,10.65,137.52,5.32Z" transform="translate(0.45 -5.32)"/>
      </g>
      <g>
        <path class="cls-15" d="M94.6,47.89q-.72,17.52-1.42,35c-.24,6.11,1.17,19.87,3.56,25.5,4.31,10.21,10.74,6.15,10.31,21.94l-.33,7.13" transform="translate(0.45 -5.32)"/>
        <path class="cls-15" d="M93.46,63.83c-2.28-.27-4-2.25-4.77-4.43s-2.36-11.07-2.26-12.83" transform="translate(0.45 -5.32)"/>
        <path class="cls-15" d="M93.15,83.74c4.54-.49,7.47-5.07,8.89-9.42,3.67-11.24,1.86-23.47,3.34-35.2" transform="translate(0.45 -5.32)"/>
        <path class="cls-15" d="M94.61,101.21A14.43,14.43,0,0,1,81.93,92.7c-1.42-3.31-1.53-7-1.62-10.61L80,70.7" transform="translate(0.45 -5.32)"/>
        <circle class="cls-2" cx="86.88" cy="41.25" r="1.75"/>
        <circle class="cls-2" cx="95.05" cy="42.56" r="1.75"/>
        <circle class="cls-2" cx="105.83" cy="33.8" r="1.75"/>
        <circle class="cls-2" cx="79.7" cy="65.17" r="1.75"/>
      </g>
      <g>
        <path class="cls-15" d="M211.24,94a80,80,0,0,1,.35-10.19c.55-5.37,0-10.85,1.31-16.1A8.38,8.38,0,0,1,214,64.84a16,16,0,0,1,2.77-2.62c3.13-2.77,4.84-6.86,5.52-11a55.56,55.56,0,0,0,.13-12.5" transform="translate(0.45 -5.32)"/>
        <path class="cls-15" d="M213,66.9c.82-11,1.13-20.46,1.31-31.51" transform="translate(0.45 -5.32)"/>
        <circle class="cls-2" cx="214.77" cy="29.85" r="1.75"/>
        <path class="cls-2" d="M224.19,38.46a1.76,1.76,0,1,1-1.76-1.76A1.75,1.75,0,0,1,224.19,38.46Z" transform="translate(0.45 -5.32)"/>
        <path class="cls-15" d="M213.53,51.89a9,9,0,0,1-6.3-5.58,20,20,0,0,1-1.1-8.63c.13-2.92.29-8,.29-8" transform="translate(0.45 -5.32)"/>
        <circle class="cls-2" cx="206.65" cy="24.36" r="1.75"/>
      </g>
      <g>
        <path class="cls-19" d="M112.53,130.15c-5.27-30.93,2.92-26.44,3.73-58.57.27-10.82-5.27-10.82-4.39-41.53" transform="translate(0.45 -5.32)"/>
        <g>
          <path class="cls-20" d="M101.54,12.8s.08,12.38,2.77,17.44a8.64,8.64,0,0,0,9.38,4.47c8.88-2.08,6.82-16.86,6.35-23.15Z" transform="translate(0.45 -5.32)"/>
          <path class="cls-20" d="M111.71,21.51c.07-3.38-.61-7.54-2.47-10.36a6.7,6.7,0,0,0-5.06-3.07,5.3,5.3,0,0,0-5,2.86,7,7,0,0,0-.48,3.53c.17,2,3.48,13.09,4.47,14.81,2,.56,4,1.08,6,1.64" transform="translate(0.45 -5.32)"/>
          <path class="cls-20" d="M112.26,21.47a17.53,17.53,0,0,1,1.06-10.09,6.7,6.7,0,0,1,4.61-3.72,5.29,5.29,0,0,1,5.37,2.17,6.92,6.92,0,0,1,.94,3.43c.1,2-3.2,14.64-4,16.47a8.84,8.84,0,0,0-5.08,1.58" transform="translate(0.45 -5.32)"/>
          <path class="cls-20" d="M115.76,12.23a4.79,4.79,0,0,0-2-6,4.79,4.79,0,0,0-6.12,1.61,3.3,3.3,0,0,0-.54,2.11,5.08,5.08,0,0,0,1.5,2.55,14,14,0,0,0,3.89.7C113.85,13.19,115.19,13.43,115.76,12.23Z" transform="translate(0.45 -5.32)"/>
          <path class="cls-21" d="M110.5,32.63c-4.06-7.42-3.52-16.79-3.86-23" transform="translate(0.45 -5.32)"/>
          <path class="cls-21" d="M113.45,32.53a101.74,101.74,0,0,0,2.36-23.19" transform="translate(0.45 -5.32)"/>
          <path class="cls-2" d="M111.87,36a7.73,7.73,0,0,1-3.43-.88A13,13,0,0,1,105.71,33a7.53,7.53,0,0,1-2.57-3.75A14.2,14.2,0,0,1,111.87,36Z" transform="translate(0.45 -5.32)"/>
          <path class="cls-2" d="M111.15,35.86a7.72,7.72,0,0,1,1.93-3A13.11,13.11,0,0,1,115.91,31a7.45,7.45,0,0,1,4.37-1.23A10.78,10.78,0,0,1,111.15,35.86Z" transform="translate(0.45 -5.32)"/>
          <path class="cls-2" d="M111.74,36.26c-1.14-.87-3.15-5.24-.61-9.47C113.88,30.24,113.43,32.61,111.74,36.26Z" transform="translate(0.45 -5.32)"/>
        </g>
      </g>
      <g>
        <g>
          <g>
            <path class="cls-3" d="M201.23,55.08A17,17,0,0,0,187.64,64C193,64.12,199.76,60.17,201.23,55.08Z" transform="translate(0.45 -5.32)"/>
            <path class="cls-3" d="M199.69,88.86a17.09,17.09,0,0,0-13.59,8.91C191.5,97.9,198.23,94,199.69,88.86Z" transform="translate(0.45 -5.32)"/>
            <path class="cls-3" d="M205.76,76.19c-7.25.4-14.08,3.79-17.47,8.64C195.23,85,203.88,81.13,205.76,76.19Z" transform="translate(0.45 -5.32)"/>
            <path class="cls-3" d="M205.36,65.55a12.7,12.7,0,0,0-10.11,1.11,16,16,0,0,0-6.75,7.76C195.89,73.77,202.59,70,205.36,65.55Z" transform="translate(0.45 -5.32)"/>
            <path class="cls-3" d="M186.2,104.39a12.71,12.71,0,0,0-5.2-8.75,16.15,16.15,0,0,0-9.86-2.93C174.79,99.18,181,103.7,186.2,104.39Z" transform="translate(0.45 -5.32)"/>
            <path class="cls-3" d="M187.42,89.32a12.71,12.71,0,0,0-3.25-9.63,16.08,16.08,0,0,0-9-4.94C177.36,81.84,182.52,87.57,187.42,89.32Z" transform="translate(0.45 -5.32)"/>
            <path class="cls-3" d="M188.5,74.87A11.17,11.17,0,0,0,184.32,67a14.2,14.2,0,0,0-8.53-3C178.72,69.81,184,74,188.5,74.87Z" transform="translate(0.45 -5.32)"/>
            <path class="cls-3" d="M187.29,64.31a10.41,10.41,0,0,0-3.75-7.39A13.19,13.19,0,0,0,175.68,54C178.3,59.46,183.13,63.47,187.29,64.31Z" transform="translate(0.45 -5.32)"/>
          </g>
          <path class="cls-19" d="M187.45,54.61q.47,11.49.94,23c.42,10.27-3.69,21.19-1.72,31.94" transform="translate(0.45 -5.32)"/>
        </g>
        <g>
          <path class="cls-20" d="M177.44,33s.08,12.38,2.77,17.44a8.63,8.63,0,0,0,9.38,4.47c8.88-2.08,6.82-16.86,6.35-23.15Z" transform="translate(0.45 -5.32)"/>
          <path class="cls-20" d="M187.61,41.69c.07-3.38-.61-7.54-2.47-10.36a6.7,6.7,0,0,0-5.06-3.07,5.3,5.3,0,0,0-5,2.86,7,7,0,0,0-.48,3.54c.17,2,3.48,13.08,4.47,14.8,2,.56,4,1.08,6,1.64" transform="translate(0.45 -5.32)"/>
          <path class="cls-20" d="M188.16,41.65a17.53,17.53,0,0,1,1.06-10.09,6.7,6.7,0,0,1,4.61-3.72A5.29,5.29,0,0,1,199.2,30a7,7,0,0,1,.94,3.44c.1,2-3.2,14.63-4,16.46a8.84,8.84,0,0,0-5.08,1.58" transform="translate(0.45 -5.32)"/>
          <path class="cls-20" d="M191.66,32.41a4.61,4.61,0,0,0-8.09-4.4,3.32,3.32,0,0,0-.54,2.11,5,5,0,0,0,1.5,2.55,14,14,0,0,0,3.89.7C189.75,33.37,191.09,33.61,191.66,32.41Z" transform="translate(0.45 -5.32)"/>
          <path class="cls-21" d="M185.78,52.45a46.25,46.25,0,0,1-2.73-23.6" transform="translate(0.45 -5.32)"/>
          <path class="cls-21" d="M189.34,52.84a155,155,0,0,0,2-25" transform="translate(0.45 -5.32)"/>
          <path class="cls-2" d="M187.77,56.15a7.6,7.6,0,0,1-3.43-.88,13,13,0,0,1-2.73-2.06A7.53,7.53,0,0,1,179,49.46,14.2,14.2,0,0,1,187.77,56.15Z" transform="translate(0.45 -5.32)"/>
          <path class="cls-2" d="M187.05,56a7.72,7.72,0,0,1,1.93-3,13.11,13.11,0,0,1,2.83-1.93,7.45,7.45,0,0,1,4.37-1.23A10.78,10.78,0,0,1,187.05,56Z" transform="translate(0.45 -5.32)"/>
          <path class="cls-2" d="M187.64,56.44c-1.14-.87-3.15-5.24-.61-9.47C189.78,50.42,189.33,52.79,187.64,56.44Z" transform="translate(0.45 -5.32)"/>
        </g>
      </g>
    </g>
  </g>
</svg>
