<svg xmlns="http://www.w3.org/2000/svg" width="211.13" height="310.41" viewBox="0 0 211.13 310.41">
  <defs>
    <style>
      .cls-1 {
        opacity: 0.46;
      }

      .cls-2, .cls-8 {
        fill: #fff;
      }

      .cls-3 {
        fill: #766cff;
      }

      .cls-4 {
        fill: #ededf9;
      }

      .cls-5 {
        fill: #dcdcef;
      }

      .cls-6 {
        fill: #fc6681;
      }

      .cls-7 {
        fill: #06005a;
      }

      .cls-8 {
        opacity: 0.43;
      }

      .cls-9 {
        fill: #003;
      }

      .cls-10 {
        fill: #ea496c;
      }

      .cls-11 {
        fill: #ff948c;
      }

      .cls-12 {
        fill: #ef7e7b;
      }

      .cls-13, .cls-14 {
        fill: #f96662;
      }

      .cls-13 {
        opacity: 0.51;
      }

      .cls-15 {
        fill: #00001e;
      }

      .cls-16 {
        fill: #080866;
      }

      .cls-17 {
        fill: #ecebf2;
      }

      .cls-18 {
        fill: #f25375;
      }

      .cls-19 {
        fill: #90aee4;
      }

      .cls-20 {
        fill: #6c97d3;
      }
    </style>
  </defs>
  <title>slide_3</title>
  <g id="OBJECTS">
    <g>
      <g class="cls-1">
        <path class="cls-2" d="M109.9,52.83a1,1,0,0,0,0-2,1,1,0,0,0,0,2Z"/>
      </g>
      <g>
        <g>
          <g>
            <path class="cls-3" d="M16.41,307.06A11.28,11.28,0,0,1,5.13,295.78h0a11.28,11.28,0,0,1,11.28-11.27H155.27a1.46,1.46,0,0,0,1.46-1.46V283a1.39,1.39,0,0,0-1.39-1.39H14.4A14.4,14.4,0,0,0,0,296H0a14.4,14.4,0,0,0,14.4,14.4H155a1.7,1.7,0,0,0,1.69-1.7v-.08a1.57,1.57,0,0,0-1.57-1.57Z"/>
            <path class="cls-4" d="M5.13,295.78h0A11.22,11.22,0,0,0,16.3,307.06H155.24l-.2-.78a42.15,42.15,0,0,1,0-21l.2-.78H16.3A11.22,11.22,0,0,0,5.13,295.78Z"/>
            <path class="cls-5" d="M8.41,298h0a11.22,11.22,0,0,1,11.16-11.28H154.72c.1-.48.2-1,.32-1.45l.2-.78H16.3A11.22,11.22,0,0,0,5.13,295.78h0a11.26,11.26,0,0,0,6.66,10.31A11.27,11.27,0,0,1,8.41,298Z"/>
            <rect class="cls-5" x="47.19" y="293.1" width="60.72" height="0.83"/>
            <rect class="cls-5" x="85.36" y="301.02" width="60.72" height="0.83"/>
            <polygon class="cls-6" points="69.34 293.62 69.34 306.56 75.23 301.76 81.02 306.39 80.34 293.57 69.34 293.62"/>
          </g>
          <g>
            <rect class="cls-7" x="20.12" y="260.34" width="153.82" height="21.27" rx="9.4"/>
            <rect class="cls-8" x="150.2" y="260.34" width="2.53" height="21.27"/>
            <rect class="cls-8" x="139" y="260.34" width="2.53" height="21.27"/>
            <path class="cls-9" d="M20.12,266.28v3l120.44-9H27.4C23.38,260.34,20.12,264.08,20.12,266.28Z"/>
            <rect class="cls-8" x="38.58" y="260.34" width="2.53" height="21.27"/>
            <rect class="cls-8" x="49.29" y="260.34" width="2.53" height="21.27"/>
          </g>
          <g>
            <path class="cls-4" d="M28.39,245.72h0c0,6.22,4.66,11.27,10.41,11.27H168.3l-.19-.78a45.12,45.12,0,0,1,0-21l.19-.78H38.8C33.05,234.44,28.39,239.49,28.39,245.72Z"/>
            <g>
              <path class="cls-3" d="M38.9,257c-5.8,0-10.51-5.05-10.51-11.27h0c0-6.23,4.71-11.28,10.51-11.28H168.33a1.41,1.41,0,0,0,1.36-1.46v0a1.35,1.35,0,0,0-1.3-1.4H37c-7.41,0-13.42,6.45-13.42,14.4h0c0,7.95,6,14.4,13.42,14.4H168.11a1.64,1.64,0,0,0,1.58-1.69v-.09a1.53,1.53,0,0,0-1.47-1.57Z"/>
              <path class="cls-5" d="M31.44,248h0c0-6.23,4.66-11.27,10.41-11.27h126c.1-.49.19-1,.3-1.46l.19-.78H38.8c-5.75,0-10.41,5.05-10.41,11.28h0A11.35,11.35,0,0,0,34.6,256,11.74,11.74,0,0,1,31.44,248Z"/>
              <g>
                <rect class="cls-5" x="48" y="243.06" width="60.72" height="0.83"/>
                <rect class="cls-5" x="86.17" y="250.98" width="60.72" height="0.83"/>
              </g>
            </g>
          </g>
          <g>
            <path class="cls-6" d="M138,171.37a9.81,9.81,0,0,0,9.81-9.81h0a9.81,9.81,0,0,0-9.81-9.81H17.25A1.27,1.27,0,0,1,16,150.48v0a1.22,1.22,0,0,1,1.22-1.21H139.79a12.52,12.52,0,0,1,12.52,12.52h0a12.52,12.52,0,0,1-12.52,12.53H17.46A1.47,1.47,0,0,1,16,172.81v-.08a1.37,1.37,0,0,1,1.37-1.36Z"/>
            <path class="cls-4" d="M147.85,161.56h0a9.77,9.77,0,0,1-9.71,9.81H17.28l.17-.68a36.66,36.66,0,0,0,0-18.26l-.17-.68H138.14A9.76,9.76,0,0,1,147.85,161.56Z"/>
            <path class="cls-5" d="M145,163.5h0a9.76,9.76,0,0,0-9.71-9.81H17.74c-.1-.42-.18-.84-.29-1.26l-.17-.68H138.14a9.76,9.76,0,0,1,9.71,9.81h0a9.81,9.81,0,0,1-5.8,9A9.8,9.8,0,0,0,145,163.5Z"/>
            <rect class="cls-5" x="58.45" y="159.22" width="52.82" height="0.72"/>
            <rect class="cls-5" x="73.22" y="165.75" width="52.82" height="0.72"/>
          </g>
          <g>
            <rect class="cls-6" x="12.28" y="203.15" width="153.82" height="28.34" rx="9.4"/>
            <rect class="cls-8" x="142.35" y="203.15" width="2.53" height="28.34"/>
            <rect class="cls-8" x="131.15" y="203.15" width="2.53" height="28.34"/>
            <path class="cls-10" d="M12.28,210.43v4.66l120.44-11.94H19.56A7.28,7.28,0,0,0,12.28,210.43Z"/>
            <rect class="cls-8" x="30.73" y="203.15" width="2.53" height="28.34"/>
            <rect class="cls-8" x="41.45" y="203.15" width="2.53" height="28.34"/>
          </g>
          <g>
            <path class="cls-3" d="M18,199.73c-5.08,0-9.19-5-9.19-11.28h0c0-6.22,4.11-11.27,9.19-11.27H131.23a1.34,1.34,0,0,0,1.19-1.46v-.05a1.28,1.28,0,0,0-1.14-1.39H16.38c-6.48,0-11.74,6.44-11.74,14.4h0c0,7.95,5.26,14.4,11.74,14.4H131a1.57,1.57,0,0,0,1.38-1.7v-.08a1.45,1.45,0,0,0-1.28-1.57Z"/>
            <path class="cls-4" d="M8.83,188.45h0c0,6.23,4.07,11.28,9.1,11.28H131.21L131,199a51.53,51.53,0,0,1,0-21l.17-.78H17.93C12.9,177.18,8.83,182.23,8.83,188.45Z"/>
            <path class="cls-5" d="M11.5,190.69h0c0-6.23,4.07-11.28,9.1-11.28H130.78c.08-.48.16-1,.26-1.45l.17-.78H17.93c-5,0-9.1,5-9.1,11.27h0c0,4.61,2.23,8.57,5.43,10.32A12.68,12.68,0,0,1,11.5,190.69Z"/>
            <rect class="cls-5" x="43.12" y="185.77" width="49.5" height="0.83"/>
            <rect class="cls-5" x="74.23" y="193.69" width="49.5" height="0.83"/>
            <polygon class="cls-7" points="87.86 194.15 87.86 207.09 92.66 202.29 97.38 206.93 96.83 194.1 87.86 194.15"/>
          </g>
        </g>
        <g>
          <g>
            <g>
              <path class="cls-11" d="M115.85,37.54a23.32,23.32,0,0,1-7.79,13.38.79.79,0,0,0-.32.43.67.67,0,0,0,.2.49,4,4,0,0,0,1.92,1,27.9,27.9,0,0,0,8.21,1.25,2.17,2.17,0,0,0,1.48-.36,2.31,2.31,0,0,0,.55-1,67.79,67.79,0,0,0,2.54-8.71,1,1,0,0,0,0-.41c0-.27-.31-.44-.54-.58A18.46,18.46,0,0,1,117.6,39"/>
              <path class="cls-12" d="M122.67,43.67c0-.27-.31-.44-.54-.58A18.46,18.46,0,0,1,117.6,39l-1.75-1.49c-.09.46-.21.92-.32,1.37a5,5,0,0,1,.29,1.5c.09,2.07,2.21,4.24,3,6.15a10.23,10.23,0,0,1,.25,7.45,1.28,1.28,0,0,0,.48-.24,2.31,2.31,0,0,0,.55-1,67.79,67.79,0,0,0,2.54-8.71A1,1,0,0,0,122.67,43.67Z"/>
            </g>
            <g>
              <path class="cls-7" d="M136.8,51.39a9.46,9.46,0,0,1-.31-7.09,19.6,19.6,0,0,0,1.3-3.57,8.47,8.47,0,0,0-1.38-5.31,17.82,17.82,0,0,1-2.32-5.06,7.15,7.15,0,0,1,2.32-6.66l2.14,1.12a10.41,10.41,0,0,0,.6,8,19.9,19.9,0,0,1,2,4c.62,2.47-.67,5-2,7.16s-2.71,4.59-2.33,7.1"/>
              <path class="cls-11" d="M127.67,11.64a11.17,11.17,0,0,1,9.93,13.15c-.29,1.53-.89,3-1.12,4.53a5.06,5.06,0,0,0,1.08,4.37c.41.41.76.71,1.14,1.16s.61.8.28,1.28c-.44.64-1.3.84-1.92,1.29a2.62,2.62,0,0,0-.73,1,42,42,0,0,1-6,9.12,1.11,1.11,0,0,1-.45.38,1.24,1.24,0,0,1-.86-.13,53.26,53.26,0,0,1-8.94-4.46A17.61,17.61,0,0,1,113.52,36a13.22,13.22,0,0,1-.4-9.21"/>
              <g>
                <path class="cls-7" d="M135.58,30.53c0,.48-.28.87-.62.87s-.62-.39-.62-.87.28-.88.62-.88S135.58,30,135.58,30.53Z"/>
                <path class="cls-13" d="M134,35.93a2.58,2.58,0,1,1-2.57-2.57A2.58,2.58,0,0,1,134,35.93Z"/>
                <path class="cls-14" d="M135.3,40.25l-3-.63a7.75,7.75,0,0,0,2.09,1.65C135.09,41.48,135.3,40.25,135.3,40.25Z"/>
              </g>
              <g>
                <path class="cls-7" d="M110.41,17.31a16.39,16.39,0,0,1-9.56-.77,7,7,0,0,1-3.63-3.19,7.33,7.33,0,0,1-.43-4.78A11.15,11.15,0,0,1,106.2.06a9.48,9.48,0,0,1,7.25,2.14,7.49,7.49,0,0,1,2.47,7"/>
                <path class="cls-7" d="M139.23,13.94a20.41,20.41,0,0,0-14.49-7.13c-4.43-.27-7.94.18-11,2s-4.7,4.52-6.52,7.59c-2.17,3.66-3.53,6.06-3.39,10.31a14.27,14.27,0,0,0,5.42,10.8c.9.71,3.23,2.59,4.36,2.71,1.41.16,1.39.48,2.44-.47a9.55,9.55,0,0,0,2.3-3.55c.58-1.45,1.1-3.14,2.52-3.81,1.17-.54,2.43-.17,3.72.17a7.22,7.22,0,0,0,0,.93c.2,2.25,1.28,4.31,2.16,6.38s1.59,4.39,1,6.57a24.08,24.08,0,0,1-2,4.15,11.49,11.49,0,0,0-.51,8.58l.15-.31c-.14-3.08,1.85-5.79,3.7-8.27s3.71-5.33,3.26-8.38c-.26-1.8-1.3-3.38-2-5.08a12.46,12.46,0,0,1-.83-5l.61-.31c3.42-1.75,6.81-3.9,8.9-7.13S141.61,17,139.23,13.94Z"/>
                <g>
                  <path class="cls-6" d="M106.32,19.46s-1.31,0,.91-3a120.9,120.9,0,0,1,8.3-9.09s1-.59-.77,3.19S108.92,17.82,106.32,19.46Z"/>
                  <path class="cls-6" d="M115.8,7.46s.85-.39,2.12,1.38a39.49,39.49,0,0,1,2.93,5.88s.15.65-1.63-1A14.15,14.15,0,0,1,115.8,7.46Z"/>
                  <path class="cls-6" d="M115.8,7.69s0-.8,1.74-1.46a30.37,30.37,0,0,1,5.25-1.12s.54,0-1.25,1.12A11.93,11.93,0,0,1,115.8,7.69Z"/>
                  <path class="cls-6" d="M117,7.62A1.23,1.23,0,1,1,115.8,6.4,1.22,1.22,0,0,1,117,7.62Z"/>
                </g>
              </g>
              <g>
                <path class="cls-11" d="M122.75,32.28c.5,1.21.53,4.25-.75,4.55a2.84,2.84,0,0,1-2.39-.66,5.48,5.48,0,0,1-1.47-2.08,5,5,0,0,1-.48-3.2A2.47,2.47,0,0,1,120,28.94a2.58,2.58,0,0,1,1.88,1.21,7.67,7.67,0,0,1,.88,2.13"/>
                <path class="cls-12" d="M122.39,35.2c-3.26,0-4.66-2.89-4.19-5.37a2.88,2.88,0,0,0-.54,1.06,5,5,0,0,0,.48,3.2,5.48,5.48,0,0,0,1.47,2.08,2.84,2.84,0,0,0,2.39.66c.58-.13.89-.84,1-1.67A6.06,6.06,0,0,1,122.39,35.2Z"/>
              </g>
            </g>
          </g>
          <g>
            <path class="cls-11" d="M167.46,191.11c.51,4.51,1.54,9.35-2.47,16.38a6.55,6.55,0,0,0-1.19,2.39c-.15,1.6,1.37,2.9,2.9,3.41s3.21.58,4.64,1.32c1.73.89,2.84,2.61,4.22,4a12.61,12.61,0,0,0,6.77,3.49c.29,0,.68,0,.78-.25a.65.65,0,0,0-.05-.41c-.65-1.62-2.32-2.56-3.43-3.91s-1.59-3-2.42-4.52c-.68-1.22-1.8-3.52-2.34-4.82-.86-2.08-.49-4.32,0-6.53a97.92,97.92,0,0,1,2.43-9.84"/>
            <path class="cls-15" d="M112.67,120.08a110.59,110.59,0,0,1,38.68-5.46c9.7.37,20.25,2.51,26.43,10,4.45,5.4,4.93,8,5.35,15,.37,6.34-.47,16.93-1,23.26-1,10.76-1.18,21.93-3.59,32.45a2.1,2.1,0,0,1-.41,1,2,2,0,0,1-1,.49,20.24,20.24,0,0,1-9.19.26,2.2,2.2,0,0,1-1.2-.53,2.22,2.22,0,0,1-.47-1.31c-1-7.46-1.83-19.06-2.47-26.55-.51-6-.42-8-2.4-13.72a11.36,11.36,0,0,0-2.26-4.26c-2.28-2.4-6-2.59-9.3-2.42-11.18.59-22.48,3.44-33.43,1.13"/>
            <path class="cls-11" d="M153,148a19,19,0,0,1-6.67,11.5,5.33,5.33,0,0,0-1.8,2c-.59,1.5.52,3.16,1.85,4.08s2.94,1.43,4.11,2.53c1.43,1.33,2,3.29,3,5a12.73,12.73,0,0,0,5.56,5.21c.26.13.64.22.81,0a.58.58,0,0,0,.07-.41c-.18-1.73-1.53-3.09-2.23-4.69s-.7-3.35-1.1-5c-.32-1.36-.77-3.87-.93-5.27-.25-2.24.47-3.26,1.53-5.25a86.73,86.73,0,0,1,5.36-7.47"/>
            <path class="cls-16" d="M89.07,127.3c-.53,5.26-.69,11.35,2.45,15.71,4.62,6.41,13.88,7.57,21.76,8s15.78-.3,22.6-4.26,12.75-9.3,18.35-14.86c8.14-8.1,15.72-16.75,23.08-25.56-12,11.79-23.26,25.31-27.26,41.64a1.87,1.87,0,0,0-.06,1,2,2,0,0,0,1,1l10,5.4a2.48,2.48,0,0,0,1.47.44,2.52,2.52,0,0,0,1.5-1.07,228.79,228.79,0,0,0,14.86-20.25c6.75-10.09,13.37-21,14.19-33.08.2-3.08-.09-6.47-2.18-8.74-2.32-2.51-6.12-2.89-9.54-2.86-14,.11-29,8.93-41.47,15.19s-27,23-35.9,4.18"/>
          </g>
          <g>
            <path class="cls-6" d="M191,67.63l17.28-22.35a.81.81,0,0,1,1.45.42l1.41,16.75L200.54,79Z"/>
            <polygon class="cls-17" points="182.84 72.08 206.73 44.51 210.56 62.05 210.56 62.05 182.84 72.08"/>
            <polygon class="cls-2" points="180.18 72.08 192.57 49.52 211.13 62.45 180.18 72.08"/>
            <path class="cls-6" d="M169.11,82C172.25,76.93,183,59.89,186,55.21a1.78,1.78,0,0,1,2.1-.74l23.06,8-17.25,27a1.08,1.08,0,0,1-1.2.47l-22.83-6.09A1.25,1.25,0,0,1,169.11,82Z"/>
            <path class="cls-18" d="M210.62,62.27a4.18,4.18,0,0,1-2,2.54c-3,1.77-5.13,5-7.89,7.23a62.12,62.12,0,0,1-9.08,6.06c-6.44,3.46-14.58,5.32-21.86,5.72l.07,0,22.83,6.09a1.08,1.08,0,0,0,1.2-.47l17.25-27Z"/>
          </g>
          <g>
            <path class="cls-19" d="M111,47.7C102.41,53,96.54,62,93.3,71.51S89.23,91.26,89,101.34s.14,20.2-.85,30.24c-.07.69,0,1.61.68,1.78.44.11.87-.21,1.23-.5,10.09-8.28,23.15-11.83,34.7-17.91a4.56,4.56,0,0,0,1.8-1.41,4.34,4.34,0,0,0,.49-1.36l1.35-5.49c2-8,3.94-16.11,4.25-24.36a34.89,34.89,0,0,0-6-21.65c-.85-1.31-4-6.87-5.08-8-2.84-2.78-6.35-1-10.59-5"/>
            <g>
              <path class="cls-20" d="M128.5,61.17a4,4,0,0,1-3.92,2.52c-6.9-.41-14.31-.42-21.23-1.47-.73,8,.77,16.43,5.29,23.17,5.07,7.55,13,12.32,21,16.24a100.45,100.45,0,0,0,3-19.3C132.93,75.07,131.82,67.59,128.5,61.17Z"/>
              <g>
                <path class="cls-11" d="M181.9,83.61c1.29.73,3,0,4-1a39.67,39.67,0,0,0,2.66-3.39c1.1-1.42,3.43-2.48,5.64-4a.34.34,0,0,1,.53.36c-.36,1.32-2.36,3.46-2.68,4.69a.47.47,0,0,0,0,.42.45.45,0,0,0,.39.1c2.47-.25,4.33-2.35,6.65-3.23a1.63,1.63,0,0,1,1.06-.13c.75.23.18,1.75,0,2.51a9.51,9.51,0,0,1-2.85,4.39c-4.41,3.87-9.7,4.73-15.5,3.92"/>
                <g>
                  <path class="cls-19" d="M103.76,57.28c3.18-2.29,7.29-2.43,11-1.77,7.22,1.27,13.86,5.14,19.92,9.61,5.64,4.16,11,8.91,17.07,12.16,8.2,4.35,17.51,5.78,26.62,5.5,1.73,0,3.56-.14,5.1.73s2.6,3.09,1.71,4.71a4.78,4.78,0,0,1-2.6,1.87c-7.22,3-14.48,6-22,7.7s-15.48,2.18-22.95.07C127.36,95,118.68,87.47,111,79.48a32.28,32.28,0,0,1-6-7.86c-1.5-3-4.64-10-1.17-14.34"/>
                  <g>
                    <g class="cls-1">
                      <path class="cls-2" d="M114.84,64a1,1,0,0,0,0-2,1,1,0,0,0,0,2Z"/>
                    </g>
                    <g class="cls-1">
                      <path class="cls-2" d="M131.26,85.83a1,1,0,0,0,0-2,1,1,0,0,0,0,2Z"/>
                    </g>
                    <g class="cls-1">
                      <path class="cls-2" d="M133.49,69.73a1,1,0,0,0,0-2,1,1,0,0,0,0,2Z"/>
                    </g>
                    <g class="cls-1">
                      <path class="cls-2" d="M119,78.82a1,1,0,0,0,0-2,1,1,0,0,0,0,2Z"/>
                    </g>
                    <g class="cls-1">
                      <path class="cls-2" d="M150.39,84.56a1,1,0,0,0,0-2,1,1,0,0,0,0,2Z"/>
                    </g>
                    <g class="cls-1">
                      <path class="cls-2" d="M146.91,96.35a1,1,0,0,0,0-2,1,1,0,0,0,0,2Z"/>
                    </g>
                    <g class="cls-1">
                      <path class="cls-2" d="M170.31,89a1,1,0,0,0,0-2,1,1,0,0,0,0,2Z"/>
                    </g>
                  </g>
                </g>
              </g>
            </g>
            <g>
              <g class="cls-1">
                <path class="cls-2" d="M122.49,109.74a1,1,0,0,0,0-2,1,1,0,0,0,0,2Z"/>
              </g>
              <g class="cls-1">
                <path class="cls-2" d="M109.74,94a1,1,0,0,0,0-2,1,1,0,0,0,0,2Z"/>
              </g>
              <g class="cls-1">
                <path class="cls-2" d="M106.23,114.52a1,1,0,0,0,0-2,1,1,0,0,0,0,2Z"/>
              </g>
              <g class="cls-1">
                <path class="cls-2" d="M94,125.84a1,1,0,0,0,0-2,1,1,0,0,0,0,2Z"/>
              </g>
              <g class="cls-1">
                <path class="cls-2" d="M94.44,100.5a1,1,0,0,0,0-2,1,1,0,0,0,0,2Z"/>
              </g>
              <g class="cls-1">
                <path class="cls-2" d="M101.45,80.73a1,1,0,0,0,0-2,1,1,0,0,0,0,2Z"/>
              </g>
              <g class="cls-1">
                <path class="cls-2" d="M101.45,65.43a1,1,0,0,0,0-2,1,1,0,0,0,0,2Z"/>
              </g>
              <g class="cls-1">
                <path class="cls-2" d="M126.32,97.79a1,1,0,0,0,0-2,1,1,0,0,0,0,2Z"/>
              </g>
              <g class="cls-1">
                <path class="cls-2" d="M92.05,84.56a1,1,0,0,0,0-2,1,1,0,0,0,0,2Z"/>
              </g>
            </g>
          </g>
        </g>
      </g>
    </g>
  </g>
</svg>
